<?xml version="1.0" encoding="utf-8"?>
<!-- Generator: Adobe Illustrator 25.0.0, SVG Export Plug-In . SVG Version: 6.00 Build 0)  -->
<svg version="1.1" id="Layer_1" xmlns="http://www.w3.org/2000/svg" xmlns:xlink="http://www.w3.org/1999/xlink" x="0px" y="0px"
	 viewBox="0 0 500 76.95" style="enable-background:new 0 0 500 76.95;" xml:space="preserve">
<style type="text/css">
	.st0{fill:#E3E4E4;}
	.st1{fill:#8B8B8C;}
</style>
<g>
	<path class="st0" d="M91.28,55.67h1.14v4.19l4.46-4.19h1.5l-5.36,5.01l5.78,6.15h-1.49l-4.89-5.2v5.2h-1.14V55.67z"/>
	<path class="st0" d="M103.88,58.36c1.27,0,2.32,0.46,3.16,1.38c0.76,0.84,1.14,1.83,1.14,2.98c0,1.15-0.4,2.16-1.2,3.02
		c-0.8,0.86-1.83,1.29-3.1,1.29c-1.26,0-2.3-0.43-3.1-1.29c-0.8-0.86-1.2-1.87-1.2-3.02c0-1.14,0.38-2.13,1.14-2.97
		C101.55,58.82,102.6,58.36,103.88,58.36z M103.87,59.4c-0.88,0-1.64,0.33-2.27,0.98c-0.64,0.65-0.95,1.44-0.95,2.37
		c0,0.6,0.14,1.15,0.43,1.67c0.29,0.52,0.68,0.91,1.17,1.19c0.49,0.28,1.03,0.42,1.62,0.42c0.59,0,1.13-0.14,1.62-0.42
		c0.49-0.28,0.88-0.68,1.17-1.19c0.29-0.52,0.43-1.07,0.43-1.67c0-0.93-0.32-1.71-0.95-2.37C105.51,59.73,104.75,59.4,103.87,59.4z"
		/>
	<path class="st0" d="M109.43,58.57h1.08v1.21c0.32-0.48,0.66-0.83,1.02-1.07c0.36-0.23,0.73-0.35,1.12-0.35
		c0.29,0,0.61,0.09,0.94,0.28l-0.55,0.89c-0.22-0.1-0.41-0.14-0.56-0.14c-0.35,0-0.69,0.15-1.02,0.44
		c-0.33,0.29-0.58,0.74-0.75,1.35c-0.13,0.47-0.2,1.42-0.2,2.85v2.79h-1.08V58.57z"/>
	<path class="st0" d="M121.14,64.09l0.89,0.47c-0.29,0.58-0.63,1.04-1.02,1.4c-0.38,0.35-0.82,0.62-1.3,0.81
		c-0.48,0.19-1.03,0.28-1.63,0.28c-1.35,0-2.4-0.44-3.16-1.32c-0.76-0.88-1.14-1.88-1.14-2.99c0-1.05,0.32-1.98,0.96-2.8
		c0.82-1.04,1.91-1.56,3.27-1.56c1.41,0,2.53,0.53,3.37,1.6c0.6,0.75,0.9,1.69,0.91,2.82h-7.42c0.02,0.96,0.33,1.74,0.92,2.36
		c0.59,0.61,1.32,0.92,2.19,0.92c0.42,0,0.83-0.07,1.22-0.22c0.4-0.15,0.74-0.34,1.02-0.58C120.51,65.02,120.81,64.62,121.14,64.09z
		 M121.14,61.86c-0.14-0.57-0.35-1.02-0.62-1.36c-0.27-0.34-0.63-0.61-1.07-0.82c-0.45-0.21-0.91-0.31-1.41-0.31
		c-0.81,0-1.51,0.26-2.09,0.78c-0.42,0.38-0.74,0.95-0.96,1.71H121.14z"/>
	<path class="st0" d="M132.19,58.57v8.25h-1.05v-1.42c-0.44,0.54-0.94,0.95-1.5,1.22c-0.55,0.27-1.16,0.41-1.82,0.41
		c-1.17,0-2.16-0.42-2.99-1.27c-0.83-0.85-1.24-1.88-1.24-3.09c0-1.19,0.42-2.2,1.25-3.05c0.84-0.84,1.84-1.27,3.01-1.27
		c0.68,0,1.29,0.14,1.84,0.43c0.55,0.29,1.03,0.72,1.44,1.3v-1.52H132.19z M127.95,59.38c-0.59,0-1.14,0.15-1.64,0.44
		c-0.5,0.29-0.9,0.7-1.19,1.22c-0.29,0.52-0.44,1.08-0.44,1.67c0,0.58,0.15,1.14,0.45,1.67c0.3,0.53,0.7,0.94,1.2,1.24
		c0.5,0.3,1.04,0.44,1.62,0.44c0.58,0,1.13-0.15,1.65-0.44c0.52-0.29,0.92-0.69,1.2-1.19c0.28-0.5,0.42-1.06,0.42-1.69
		c0-0.95-0.31-1.75-0.94-2.39C129.64,59.7,128.87,59.38,127.95,59.38z"/>
	<path class="st0" d="M138.47,55.67h2.2c0.89,0,1.56,0.1,2.04,0.31c0.47,0.21,0.85,0.53,1.12,0.97c0.28,0.43,0.41,0.92,0.41,1.45
		c0,0.5-0.12,0.95-0.36,1.35c-0.24,0.41-0.6,0.74-1.07,0.99c0.58,0.2,1.03,0.43,1.34,0.69c0.31,0.27,0.56,0.59,0.73,0.96
		c0.17,0.38,0.26,0.78,0.26,1.22c0,0.89-0.33,1.65-0.98,2.27c-0.65,0.62-1.53,0.93-2.64,0.93h-3.06V55.67z M139.56,56.76v3.57h0.64
		c0.78,0,1.35-0.07,1.71-0.22c0.37-0.14,0.65-0.37,0.87-0.68c0.21-0.31,0.32-0.66,0.32-1.04c0-0.51-0.18-0.91-0.54-1.2
		c-0.36-0.29-0.93-0.44-1.7-0.44H139.56z M139.56,61.45v4.28h1.38c0.82,0,1.41-0.08,1.79-0.24c0.38-0.16,0.69-0.41,0.92-0.75
		c0.23-0.34,0.34-0.71,0.34-1.1c0-0.5-0.16-0.93-0.49-1.3c-0.33-0.37-0.77-0.62-1.34-0.76c-0.38-0.09-1.04-0.14-1.99-0.14H139.56z"
		/>
	<path class="st0" d="M146.74,58.57h1.06v3.85c0,0.94,0.05,1.59,0.15,1.94c0.15,0.51,0.44,0.91,0.87,1.2
		c0.43,0.29,0.94,0.44,1.53,0.44c0.59,0,1.09-0.14,1.51-0.43c0.41-0.29,0.7-0.66,0.85-1.13c0.11-0.32,0.16-0.99,0.16-2.02v-3.85
		h1.08v4.05c0,1.14-0.13,1.99-0.4,2.57c-0.26,0.58-0.67,1.03-1.2,1.35c-0.53,0.33-1.2,0.49-2.01,0.49c-0.8,0-1.47-0.16-2.01-0.49
		c-0.54-0.33-0.94-0.78-1.21-1.37c-0.27-0.58-0.4-1.46-0.4-2.64V58.57z"/>
	<path class="st0" d="M156.37,55.18c0.24,0,0.45,0.09,0.62,0.26c0.17,0.17,0.25,0.38,0.25,0.62c0,0.24-0.08,0.44-0.25,0.61
		c-0.17,0.17-0.38,0.26-0.62,0.26c-0.24,0-0.44-0.09-0.61-0.26c-0.17-0.17-0.26-0.38-0.26-0.61c0-0.24,0.09-0.45,0.26-0.62
		C155.93,55.26,156.13,55.18,156.37,55.18z M155.84,58.57h1.06v8.25h-1.06V58.57z"/>
	<path class="st0" d="M158.64,55.39h1.06v11.44h-1.06V55.39z"/>
	<path class="st0" d="M169.84,55.39v11.44h-1.05v-1.42c-0.45,0.54-0.94,0.95-1.5,1.22c-0.55,0.27-1.16,0.41-1.82,0.41
		c-1.17,0-2.17-0.42-2.99-1.27c-0.83-0.85-1.24-1.88-1.24-3.09c0-1.19,0.42-2.2,1.25-3.05c0.83-0.84,1.84-1.27,3.01-1.27
		c0.68,0,1.29,0.14,1.84,0.43c0.55,0.29,1.03,0.72,1.44,1.3v-4.7H169.84z M165.59,59.38c-0.59,0-1.13,0.15-1.64,0.44
		c-0.5,0.29-0.9,0.7-1.19,1.22c-0.29,0.52-0.44,1.08-0.44,1.67c0,0.58,0.15,1.14,0.45,1.67c0.3,0.53,0.7,0.94,1.2,1.24
		c0.5,0.3,1.04,0.44,1.62,0.44c0.58,0,1.13-0.15,1.65-0.44c0.52-0.29,0.92-0.69,1.2-1.19c0.28-0.5,0.42-1.06,0.42-1.69
		c0-0.95-0.32-1.75-0.94-2.39C167.29,59.7,166.51,59.38,165.59,59.38z"/>
	<path class="st0" d="M172.3,55.18c0.24,0,0.45,0.09,0.62,0.26c0.17,0.17,0.25,0.38,0.25,0.62c0,0.24-0.08,0.44-0.25,0.61
		c-0.17,0.17-0.38,0.26-0.62,0.26c-0.24,0-0.44-0.09-0.61-0.26c-0.17-0.17-0.26-0.38-0.26-0.61c0-0.24,0.09-0.45,0.26-0.62
		C171.86,55.26,172.06,55.18,172.3,55.18z M171.77,58.57h1.06v8.25h-1.06V58.57z"/>
	<path class="st0" d="M174.73,58.57h1.06v1.48c0.42-0.57,0.89-0.99,1.41-1.27c0.51-0.28,1.08-0.42,1.68-0.42
		c0.62,0,1.16,0.16,1.64,0.47c0.48,0.31,0.83,0.74,1.06,1.27c0.23,0.53,0.34,1.36,0.34,2.48v4.25h-1.06v-3.94
		c0-0.95-0.04-1.59-0.12-1.9c-0.12-0.55-0.36-0.96-0.71-1.23c-0.35-0.28-0.8-0.41-1.37-0.41c-0.64,0-1.22,0.21-1.73,0.64
		c-0.51,0.42-0.84,0.95-1,1.58c-0.1,0.41-0.15,1.16-0.15,2.24v3.03h-1.06V58.57z"/>
	<path class="st0" d="M191,58.57h1.06v6.58c0,1.16-0.1,2-0.3,2.54c-0.28,0.76-0.76,1.34-1.45,1.75c-0.69,0.41-1.51,0.61-2.48,0.61
		c-0.71,0-1.34-0.1-1.91-0.3c-0.56-0.2-1.02-0.47-1.38-0.81c-0.35-0.34-0.68-0.83-0.98-1.48h1.15c0.31,0.55,0.72,0.95,1.21,1.21
		c0.5,0.26,1.11,0.39,1.85,0.39c0.72,0,1.34-0.14,1.83-0.4c0.5-0.27,0.85-0.61,1.07-1.02c0.21-0.41,0.32-1.07,0.32-1.98v-0.42
		c-0.4,0.5-0.89,0.89-1.47,1.16c-0.58,0.27-1.19,0.41-1.84,0.41c-0.76,0-1.47-0.19-2.14-0.56c-0.67-0.38-1.18-0.88-1.55-1.52
		c-0.36-0.64-0.55-1.34-0.55-2.1c0-0.76,0.19-1.48,0.57-2.14c0.38-0.66,0.9-1.18,1.57-1.57s1.38-0.58,2.12-0.58
		c0.62,0,1.19,0.13,1.73,0.38c0.53,0.26,1.05,0.68,1.55,1.26V58.57z M187.87,59.38c-0.6,0-1.16,0.15-1.68,0.44
		c-0.52,0.29-0.92,0.69-1.21,1.21c-0.29,0.51-0.44,1.07-0.44,1.66c0,0.91,0.3,1.65,0.91,2.24c0.6,0.59,1.39,0.89,2.36,0.89
		c0.98,0,1.76-0.29,2.35-0.88c0.59-0.59,0.89-1.36,0.89-2.31c0-0.62-0.14-1.18-0.41-1.66c-0.27-0.49-0.66-0.87-1.16-1.16
		C188.98,59.53,188.44,59.38,187.87,59.38z"/>
	<path class="st0" d="M198.19,66.82V55.67h2.31c1.67,0,2.88,0.13,3.63,0.4c1.08,0.38,1.93,1.04,2.54,1.97
		c0.61,0.93,0.91,2.05,0.91,3.34c0,1.12-0.24,2.1-0.72,2.95c-0.48,0.85-1.11,1.48-1.88,1.88c-0.77,0.4-1.85,0.61-3.24,0.61H198.19z
		 M199.26,65.77h1.29c1.54,0,2.61-0.1,3.21-0.29c0.84-0.27,1.5-0.76,1.98-1.47c0.48-0.71,0.72-1.58,0.72-2.6
		c0-1.08-0.26-1.99-0.78-2.76c-0.52-0.76-1.25-1.29-2.18-1.57c-0.7-0.21-1.85-0.32-3.45-0.32h-0.79V65.77z"/>
	<path class="st0" d="M209.63,55.18c0.24,0,0.45,0.09,0.62,0.26c0.17,0.17,0.25,0.38,0.25,0.62c0,0.24-0.08,0.44-0.25,0.61
		c-0.17,0.17-0.38,0.26-0.62,0.26c-0.24,0-0.44-0.09-0.61-0.26c-0.17-0.17-0.26-0.38-0.26-0.61c0-0.24,0.09-0.45,0.26-0.62
		C209.19,55.26,209.4,55.18,209.63,55.18z M209.1,58.57h1.06v8.25h-1.06V58.57z"/>
	<path class="st0" d="M216.21,59.48l-0.68,0.71c-0.57-0.55-1.12-0.83-1.67-0.83c-0.34,0-0.64,0.11-0.89,0.34
		c-0.24,0.23-0.37,0.49-0.37,0.8c0,0.27,0.1,0.52,0.3,0.77c0.2,0.25,0.63,0.54,1.28,0.87c0.79,0.41,1.33,0.8,1.61,1.18
		c0.28,0.38,0.42,0.82,0.42,1.3c0,0.68-0.24,1.25-0.71,1.72c-0.48,0.47-1.07,0.71-1.79,0.71c-0.47,0-0.93-0.1-1.36-0.31
		c-0.43-0.21-0.79-0.49-1.07-0.86l0.67-0.76c0.54,0.61,1.12,0.92,1.73,0.92c0.43,0,0.79-0.14,1.09-0.41
		c0.3-0.27,0.45-0.59,0.45-0.96c0-0.3-0.1-0.57-0.29-0.81c-0.2-0.23-0.64-0.53-1.34-0.88c-0.74-0.38-1.25-0.76-1.52-1.14
		c-0.27-0.38-0.4-0.8-0.4-1.28c0-0.63,0.21-1.15,0.64-1.56c0.43-0.41,0.97-0.62,1.62-0.62C214.68,58.36,215.44,58.73,216.21,59.48z"
		/>
	<path class="st0" d="M217.77,58.57h1.06V60c0.37-0.53,0.75-0.91,1.14-1.15c0.54-0.32,1.1-0.49,1.69-0.49c0.4,0,0.78,0.08,1.14,0.23
		c0.36,0.16,0.65,0.37,0.88,0.63c0.23,0.26,0.42,0.63,0.59,1.12c0.35-0.65,0.8-1.14,1.33-1.47c0.53-0.34,1.1-0.51,1.71-0.51
		c0.57,0,1.07,0.14,1.51,0.43c0.44,0.29,0.76,0.69,0.97,1.21c0.21,0.52,0.32,1.29,0.32,2.32v4.5h-1.08v-4.5
		c0-0.89-0.06-1.49-0.19-1.82c-0.12-0.33-0.34-0.6-0.65-0.8c-0.3-0.2-0.67-0.3-1.09-0.3c-0.51,0-0.99,0.15-1.41,0.45
		c-0.43,0.3-0.74,0.71-0.93,1.21c-0.2,0.51-0.3,1.35-0.3,2.53v3.23h-1.06V62.6c0-1-0.06-1.67-0.19-2.03
		c-0.12-0.36-0.34-0.64-0.65-0.86c-0.31-0.21-0.67-0.32-1.1-0.32c-0.49,0-0.95,0.15-1.38,0.44s-0.74,0.69-0.95,1.19
		c-0.2,0.5-0.31,1.27-0.31,2.3v3.5h-1.06V58.57z"/>
	<path class="st0" d="M240.26,58.57v8.25h-1.05v-1.42c-0.44,0.54-0.94,0.95-1.5,1.22c-0.55,0.27-1.16,0.41-1.82,0.41
		c-1.17,0-2.16-0.42-2.99-1.27c-0.83-0.85-1.24-1.88-1.24-3.09c0-1.19,0.42-2.2,1.25-3.05c0.84-0.84,1.84-1.27,3.01-1.27
		c0.68,0,1.29,0.14,1.84,0.43c0.55,0.29,1.03,0.72,1.44,1.3v-1.52H240.26z M236.02,59.38c-0.59,0-1.14,0.15-1.64,0.44
		c-0.5,0.29-0.9,0.7-1.19,1.22c-0.29,0.52-0.44,1.08-0.44,1.67c0,0.58,0.15,1.14,0.45,1.67c0.3,0.53,0.7,0.94,1.2,1.24
		c0.5,0.3,1.04,0.44,1.62,0.44c0.58,0,1.13-0.15,1.65-0.44c0.52-0.29,0.92-0.69,1.2-1.19c0.28-0.5,0.42-1.06,0.42-1.69
		c0-0.95-0.31-1.75-0.94-2.39C237.71,59.7,236.93,59.38,236.02,59.38z"/>
	<path class="st0" d="M242.34,58.57h1.06v1.48c0.42-0.57,0.89-0.99,1.41-1.27c0.51-0.28,1.08-0.42,1.68-0.42
		c0.62,0,1.16,0.16,1.64,0.47c0.48,0.31,0.83,0.74,1.06,1.27c0.23,0.53,0.34,1.36,0.34,2.48v4.25h-1.06v-3.94
		c0-0.95-0.04-1.59-0.12-1.9c-0.12-0.55-0.36-0.96-0.71-1.23c-0.35-0.28-0.8-0.41-1.37-0.41c-0.64,0-1.22,0.21-1.73,0.64
		c-0.51,0.42-0.84,0.95-1,1.58c-0.1,0.41-0.15,1.16-0.15,2.24v3.03h-1.06V58.57z"/>
	<path class="st0" d="M252.42,55.51h1.06v3.06h1.68v0.92h-1.68v7.33h-1.06v-7.33h-1.45v-0.92h1.45V55.51z"/>
	<path class="st0" d="M256.29,55.39h1.06v11.44h-1.06V55.39z"/>
	<path class="st0" d="M259.62,55.18c0.24,0,0.45,0.09,0.62,0.26c0.17,0.17,0.25,0.38,0.25,0.62c0,0.24-0.08,0.44-0.25,0.61
		c-0.17,0.17-0.38,0.26-0.62,0.26c-0.24,0-0.44-0.09-0.61-0.26c-0.17-0.17-0.26-0.38-0.26-0.61c0-0.24,0.09-0.45,0.26-0.62
		C259.18,55.26,259.38,55.18,259.62,55.18z M259.09,58.57h1.06v8.25h-1.06V58.57z"/>
	<path class="st0" d="M262.05,58.57h1.06v1.48c0.42-0.57,0.89-0.99,1.41-1.27c0.51-0.28,1.08-0.42,1.68-0.42
		c0.62,0,1.16,0.16,1.64,0.47c0.48,0.31,0.83,0.74,1.06,1.27c0.23,0.53,0.34,1.36,0.34,2.48v4.25h-1.06v-3.94
		c0-0.95-0.04-1.59-0.12-1.9c-0.12-0.55-0.36-0.96-0.71-1.23c-0.35-0.28-0.8-0.41-1.37-0.41c-0.64,0-1.22,0.21-1.73,0.64
		c-0.51,0.42-0.84,0.95-1,1.58c-0.1,0.41-0.15,1.16-0.15,2.24v3.03h-1.06V58.57z"/>
	<path class="st0" d="M278.32,58.57h1.06v6.58c0,1.16-0.1,2-0.3,2.54c-0.28,0.76-0.76,1.34-1.45,1.75
		c-0.69,0.41-1.51,0.61-2.48,0.61c-0.71,0-1.34-0.1-1.91-0.3c-0.56-0.2-1.02-0.47-1.38-0.81c-0.35-0.34-0.68-0.83-0.98-1.48h1.15
		c0.31,0.55,0.72,0.95,1.21,1.21c0.5,0.26,1.11,0.39,1.85,0.39c0.72,0,1.34-0.14,1.83-0.4c0.5-0.27,0.85-0.61,1.07-1.02
		c0.21-0.41,0.32-1.07,0.32-1.98v-0.42c-0.4,0.5-0.89,0.89-1.47,1.16c-0.58,0.27-1.19,0.41-1.84,0.41c-0.76,0-1.47-0.19-2.14-0.56
		c-0.67-0.38-1.18-0.88-1.55-1.52c-0.36-0.64-0.55-1.34-0.55-2.1c0-0.76,0.19-1.48,0.57-2.14c0.38-0.66,0.9-1.18,1.57-1.57
		c0.67-0.38,1.38-0.58,2.12-0.58c0.62,0,1.19,0.13,1.73,0.38c0.53,0.26,1.05,0.68,1.55,1.26V58.57z M275.19,59.38
		c-0.6,0-1.16,0.15-1.68,0.44c-0.52,0.29-0.92,0.69-1.21,1.21c-0.29,0.51-0.44,1.07-0.44,1.66c0,0.91,0.3,1.65,0.91,2.24
		c0.6,0.59,1.39,0.89,2.36,0.89c0.98,0,1.76-0.29,2.35-0.88c0.59-0.59,0.89-1.36,0.89-2.31c0-0.62-0.14-1.18-0.41-1.66
		c-0.27-0.49-0.66-0.87-1.16-1.16C276.31,59.53,275.77,59.38,275.19,59.38z"/>
	<path class="st0" d="M284.4,56.76v-1.09h6.11v1.09h-2.49v10.06h-1.14V56.76H284.4z"/>
	<path class="st0" d="M298.59,64.09l0.89,0.47c-0.29,0.58-0.63,1.04-1.02,1.4c-0.38,0.35-0.82,0.62-1.3,0.81
		c-0.48,0.19-1.03,0.28-1.63,0.28c-1.35,0-2.4-0.44-3.16-1.32c-0.76-0.88-1.14-1.88-1.14-2.99c0-1.05,0.32-1.98,0.96-2.8
		c0.82-1.04,1.91-1.56,3.27-1.56c1.41,0,2.53,0.53,3.37,1.6c0.6,0.75,0.9,1.69,0.91,2.82h-7.42c0.02,0.96,0.33,1.74,0.92,2.36
		c0.59,0.61,1.32,0.92,2.2,0.92c0.42,0,0.83-0.07,1.22-0.22c0.4-0.15,0.74-0.34,1.02-0.58C297.96,65.02,298.26,64.62,298.59,64.09z
		 M298.59,61.86c-0.14-0.57-0.35-1.02-0.62-1.36c-0.27-0.34-0.63-0.61-1.07-0.82c-0.45-0.21-0.91-0.31-1.4-0.31
		c-0.81,0-1.51,0.26-2.09,0.78c-0.42,0.38-0.74,0.95-0.96,1.71H298.59z"/>
	<path class="st0" d="M309.43,60.29l-0.84,0.52c-0.73-0.97-1.72-1.45-2.98-1.45c-1,0-1.84,0.32-2.51,0.97
		c-0.66,0.65-0.99,1.43-0.99,2.36c0,0.6,0.15,1.17,0.46,1.7c0.31,0.53,0.73,0.94,1.26,1.24c0.53,0.29,1.13,0.44,1.79,0.44
		c1.21,0,2.2-0.48,2.97-1.45l0.84,0.55c-0.4,0.59-0.92,1.06-1.59,1.38s-1.42,0.49-2.27,0.49c-1.3,0-2.39-0.41-3.24-1.24
		c-0.86-0.83-1.29-1.84-1.29-3.03c0-0.8,0.2-1.54,0.6-2.23c0.4-0.69,0.95-1.22,1.66-1.6c0.7-0.38,1.49-0.58,2.36-0.58
		c0.55,0,1.07,0.08,1.58,0.25c0.51,0.17,0.94,0.38,1.29,0.65C308.88,59.53,309.18,59.87,309.43,60.29z"/>
	<path class="st0" d="M311.16,55.39h1.06v4.66c0.43-0.57,0.9-0.99,1.42-1.27c0.51-0.28,1.07-0.42,1.68-0.42
		c0.62,0,1.16,0.16,1.64,0.47c0.48,0.31,0.83,0.73,1.06,1.26c0.23,0.53,0.34,1.36,0.34,2.48v4.25h-1.06v-3.94
		c0-0.95-0.04-1.59-0.11-1.9c-0.13-0.55-0.37-0.96-0.72-1.23c-0.34-0.28-0.8-0.41-1.36-0.41c-0.64,0-1.22,0.21-1.73,0.64
		c-0.51,0.42-0.84,0.95-1,1.58c-0.1,0.4-0.15,1.15-0.15,2.24v3.03h-1.06V55.39z"/>
	<path class="st0" d="M320.32,58.57h1.06v1.48c0.42-0.57,0.89-0.99,1.41-1.27c0.51-0.28,1.08-0.42,1.68-0.42
		c0.62,0,1.16,0.16,1.64,0.47c0.48,0.31,0.83,0.74,1.06,1.27c0.23,0.53,0.34,1.36,0.34,2.48v4.25h-1.06v-3.94
		c0-0.95-0.04-1.59-0.12-1.9c-0.12-0.55-0.36-0.96-0.71-1.23c-0.35-0.28-0.8-0.41-1.37-0.41c-0.64,0-1.22,0.21-1.73,0.64
		c-0.51,0.42-0.84,0.95-1,1.58c-0.1,0.41-0.15,1.16-0.15,2.24v3.03h-1.06V58.57z"/>
	<path class="st0" d="M333.39,58.36c1.27,0,2.33,0.46,3.16,1.38c0.76,0.84,1.14,1.83,1.14,2.98c0,1.15-0.4,2.16-1.2,3.02
		c-0.8,0.86-1.83,1.29-3.1,1.29c-1.26,0-2.3-0.43-3.1-1.29c-0.8-0.86-1.2-1.87-1.2-3.02c0-1.14,0.38-2.13,1.14-2.97
		C331.06,58.82,332.11,58.36,333.39,58.36z M333.39,59.4c-0.88,0-1.64,0.33-2.27,0.98c-0.64,0.65-0.95,1.44-0.95,2.37
		c0,0.6,0.14,1.15,0.43,1.67c0.29,0.52,0.68,0.91,1.17,1.19c0.49,0.28,1.03,0.42,1.62,0.42s1.13-0.14,1.62-0.42
		c0.49-0.28,0.88-0.68,1.17-1.19c0.29-0.52,0.43-1.07,0.43-1.67c0-0.93-0.32-1.71-0.95-2.37C335.02,59.73,334.26,59.4,333.39,59.4z"
		/>
	<path class="st0" d="M339.18,55.39h1.06v11.44h-1.06V55.39z"/>
	<path class="st0" d="M346.04,58.36c1.27,0,2.32,0.46,3.16,1.38c0.76,0.84,1.14,1.83,1.14,2.98c0,1.15-0.4,2.16-1.2,3.02
		c-0.8,0.86-1.83,1.29-3.1,1.29c-1.26,0-2.3-0.43-3.1-1.29c-0.8-0.86-1.2-1.87-1.2-3.02c0-1.14,0.38-2.13,1.14-2.97
		C343.71,58.82,344.77,58.36,346.04,58.36z M346.04,59.4c-0.88,0-1.64,0.33-2.27,0.98c-0.64,0.65-0.95,1.44-0.95,2.37
		c0,0.6,0.14,1.15,0.43,1.67c0.29,0.52,0.68,0.91,1.17,1.19c0.49,0.28,1.03,0.42,1.62,0.42c0.59,0,1.13-0.14,1.62-0.42
		c0.49-0.28,0.88-0.68,1.17-1.19c0.29-0.52,0.43-1.07,0.43-1.67c0-0.93-0.32-1.71-0.95-2.37C347.68,59.73,346.92,59.4,346.04,59.4z"
		/>
	<path class="st0" d="M359.11,58.57h1.06v6.58c0,1.16-0.1,2-0.3,2.54c-0.28,0.76-0.76,1.34-1.45,1.75
		c-0.69,0.41-1.51,0.61-2.48,0.61c-0.71,0-1.34-0.1-1.91-0.3c-0.56-0.2-1.02-0.47-1.38-0.81c-0.35-0.34-0.68-0.83-0.98-1.48h1.15
		c0.31,0.55,0.72,0.95,1.21,1.21c0.5,0.26,1.11,0.39,1.85,0.39c0.72,0,1.34-0.14,1.83-0.4c0.5-0.27,0.85-0.61,1.07-1.02
		c0.21-0.41,0.32-1.07,0.32-1.98v-0.42c-0.4,0.5-0.89,0.89-1.47,1.16c-0.58,0.27-1.19,0.41-1.84,0.41c-0.76,0-1.47-0.19-2.14-0.56
		c-0.67-0.38-1.18-0.88-1.55-1.52c-0.36-0.64-0.55-1.34-0.55-2.1c0-0.76,0.19-1.48,0.57-2.14c0.38-0.66,0.9-1.18,1.57-1.57
		c0.67-0.38,1.38-0.58,2.12-0.58c0.62,0,1.19,0.13,1.73,0.38c0.53,0.26,1.05,0.68,1.55,1.26V58.57z M355.98,59.38
		c-0.6,0-1.16,0.15-1.68,0.44c-0.52,0.29-0.92,0.69-1.21,1.21c-0.29,0.51-0.44,1.07-0.44,1.66c0,0.91,0.3,1.65,0.91,2.24
		c0.6,0.59,1.39,0.89,2.36,0.89c0.98,0,1.76-0.29,2.35-0.88c0.59-0.59,0.89-1.36,0.89-2.31c0-0.62-0.14-1.18-0.41-1.66
		c-0.27-0.49-0.66-0.87-1.16-1.16C357.1,59.53,356.56,59.38,355.98,59.38z"/>
	<path class="st0" d="M361.25,58.57h1.12l2.84,6.35l2.75-6.35h1.13l-4.92,11.27h-1.12l1.59-3.64L361.25,58.57z"/>
	<path class="st0" d="M374.38,55.67h2.22c1.24,0,2.08,0.05,2.52,0.15c0.66,0.15,1.2,0.48,1.61,0.98c0.41,0.5,0.62,1.11,0.62,1.84
		c0,0.61-0.14,1.14-0.43,1.6c-0.29,0.46-0.69,0.81-1.22,1.04c-0.53,0.24-1.26,0.36-2.2,0.36l4.01,5.18h-1.38l-4.01-5.18h-0.63v5.18
		h-1.11V55.67z M375.49,56.76v3.79l1.92,0.01c0.74,0,1.3-0.07,1.65-0.21c0.36-0.14,0.63-0.37,0.83-0.68c0.2-0.31,0.3-0.66,0.3-1.04
		c0-0.37-0.1-0.71-0.3-1.02c-0.2-0.31-0.47-0.52-0.8-0.66c-0.33-0.13-0.87-0.2-1.64-0.2H375.49z"/>
	<path class="st0" d="M390.21,64.09l0.89,0.47c-0.29,0.58-0.63,1.04-1.02,1.4c-0.38,0.35-0.82,0.62-1.3,0.81
		c-0.48,0.19-1.03,0.28-1.63,0.28c-1.35,0-2.4-0.44-3.16-1.32c-0.76-0.88-1.14-1.88-1.14-2.99c0-1.05,0.32-1.98,0.96-2.8
		c0.82-1.04,1.91-1.56,3.27-1.56c1.41,0,2.53,0.53,3.37,1.6c0.6,0.75,0.9,1.69,0.91,2.82h-7.42c0.02,0.96,0.33,1.74,0.92,2.36
		c0.59,0.61,1.32,0.92,2.2,0.92c0.42,0,0.83-0.07,1.22-0.22c0.4-0.15,0.74-0.34,1.02-0.58C389.58,65.02,389.88,64.62,390.21,64.09z
		 M390.21,61.86c-0.14-0.57-0.35-1.02-0.62-1.36c-0.27-0.34-0.63-0.61-1.07-0.82c-0.45-0.21-0.91-0.31-1.4-0.31
		c-0.81,0-1.51,0.26-2.09,0.78c-0.42,0.38-0.75,0.95-0.96,1.71H390.21z"/>
	<path class="st0" d="M397.19,59.48l-0.68,0.71c-0.57-0.55-1.12-0.83-1.67-0.83c-0.34,0-0.64,0.11-0.89,0.34
		c-0.24,0.23-0.37,0.49-0.37,0.8c0,0.27,0.1,0.52,0.3,0.77c0.2,0.25,0.63,0.54,1.28,0.87c0.79,0.41,1.33,0.8,1.61,1.18
		c0.28,0.38,0.42,0.82,0.42,1.3c0,0.68-0.24,1.25-0.71,1.72c-0.48,0.47-1.07,0.71-1.79,0.71c-0.47,0-0.93-0.1-1.36-0.31
		c-0.43-0.21-0.79-0.49-1.07-0.86l0.67-0.76c0.54,0.61,1.12,0.92,1.73,0.92c0.43,0,0.79-0.14,1.09-0.41
		c0.3-0.27,0.45-0.59,0.45-0.96c0-0.3-0.1-0.57-0.29-0.81c-0.2-0.23-0.64-0.53-1.34-0.88c-0.74-0.38-1.25-0.76-1.52-1.14
		c-0.27-0.38-0.4-0.8-0.4-1.28c0-0.63,0.21-1.15,0.64-1.56c0.43-0.41,0.97-0.62,1.62-0.62C395.66,58.36,396.42,58.73,397.19,59.48z"
		/>
	<path class="st0" d="M405.71,64.09l0.89,0.47c-0.29,0.58-0.63,1.04-1.02,1.4c-0.38,0.35-0.82,0.62-1.3,0.81
		c-0.48,0.19-1.03,0.28-1.63,0.28c-1.35,0-2.4-0.44-3.16-1.32c-0.76-0.88-1.14-1.88-1.14-2.99c0-1.05,0.32-1.98,0.96-2.8
		c0.82-1.04,1.91-1.56,3.27-1.56c1.41,0,2.53,0.53,3.37,1.6c0.6,0.75,0.9,1.69,0.91,2.82h-7.42c0.02,0.96,0.33,1.74,0.92,2.36
		c0.59,0.61,1.32,0.92,2.19,0.92c0.42,0,0.83-0.07,1.22-0.22c0.4-0.15,0.74-0.34,1.02-0.58C405.08,65.02,405.38,64.62,405.71,64.09z
		 M405.71,61.86c-0.14-0.57-0.35-1.02-0.62-1.36c-0.27-0.34-0.63-0.61-1.07-0.82c-0.45-0.21-0.91-0.31-1.4-0.31
		c-0.81,0-1.51,0.26-2.09,0.78c-0.42,0.38-0.74,0.95-0.96,1.71H405.71z"/>
	<path class="st0" d="M416.77,58.57v8.25h-1.05v-1.42c-0.44,0.54-0.94,0.95-1.5,1.22c-0.55,0.27-1.16,0.41-1.82,0.41
		c-1.17,0-2.16-0.42-2.99-1.27c-0.83-0.85-1.24-1.88-1.24-3.09c0-1.19,0.42-2.2,1.25-3.05c0.84-0.84,1.84-1.27,3.01-1.27
		c0.68,0,1.29,0.14,1.84,0.43c0.55,0.29,1.03,0.72,1.44,1.3v-1.52H416.77z M412.52,59.38c-0.59,0-1.14,0.15-1.64,0.44
		c-0.5,0.29-0.9,0.7-1.19,1.22c-0.29,0.52-0.44,1.08-0.44,1.67c0,0.58,0.15,1.14,0.45,1.67c0.3,0.53,0.7,0.94,1.2,1.24
		c0.5,0.3,1.04,0.44,1.62,0.44c0.58,0,1.13-0.15,1.65-0.44c0.52-0.29,0.92-0.69,1.2-1.19c0.28-0.5,0.42-1.06,0.42-1.69
		c0-0.95-0.31-1.75-0.94-2.39C414.22,59.7,413.44,59.38,412.52,59.38z"/>
	<path class="st0" d="M418.44,58.57h1.08v1.21c0.32-0.48,0.66-0.83,1.02-1.07c0.36-0.23,0.73-0.35,1.12-0.35
		c0.29,0,0.61,0.09,0.94,0.28l-0.55,0.89c-0.22-0.1-0.41-0.14-0.56-0.14c-0.35,0-0.69,0.15-1.02,0.44
		c-0.33,0.29-0.58,0.74-0.75,1.35c-0.13,0.47-0.2,1.42-0.2,2.85v2.79h-1.08V58.57z"/>
	<path class="st0" d="M431.21,60.29l-0.84,0.52c-0.73-0.97-1.72-1.45-2.98-1.45c-1,0-1.84,0.32-2.51,0.97
		c-0.66,0.65-0.99,1.43-0.99,2.36c0,0.6,0.15,1.17,0.46,1.7c0.31,0.53,0.73,0.94,1.26,1.24c0.53,0.29,1.13,0.44,1.79,0.44
		c1.21,0,2.2-0.48,2.97-1.45l0.84,0.55c-0.4,0.59-0.92,1.06-1.59,1.38s-1.42,0.49-2.27,0.49c-1.3,0-2.39-0.41-3.24-1.24
		c-0.86-0.83-1.29-1.84-1.29-3.03c0-0.8,0.2-1.54,0.6-2.23c0.4-0.69,0.95-1.22,1.66-1.6c0.7-0.38,1.49-0.58,2.36-0.58
		c0.55,0,1.07,0.08,1.58,0.25c0.51,0.17,0.94,0.38,1.29,0.65C430.67,59.53,430.97,59.87,431.21,60.29z"/>
	<path class="st0" d="M432.94,55.39h1.06v4.66c0.43-0.57,0.9-0.99,1.42-1.27c0.51-0.28,1.07-0.42,1.68-0.42
		c0.62,0,1.16,0.16,1.64,0.47c0.48,0.31,0.83,0.73,1.06,1.26c0.23,0.53,0.34,1.36,0.34,2.48v4.25h-1.06v-3.94
		c0-0.95-0.04-1.59-0.11-1.9c-0.13-0.55-0.37-0.96-0.72-1.23c-0.34-0.28-0.8-0.41-1.36-0.41c-0.64,0-1.22,0.21-1.73,0.64
		c-0.51,0.42-0.84,0.95-1,1.58c-0.1,0.4-0.15,1.15-0.15,2.24v3.03h-1.06V55.39z"/>
	<path class="st0" d="M446.11,55.67h1.11v11.16h-1.11V55.67z"/>
	<path class="st0" d="M449.29,58.57h1.06v1.48c0.42-0.57,0.89-0.99,1.41-1.27c0.51-0.28,1.08-0.42,1.68-0.42
		c0.62,0,1.16,0.16,1.64,0.47c0.48,0.31,0.83,0.74,1.06,1.27c0.23,0.53,0.34,1.36,0.34,2.48v4.25h-1.06v-3.94
		c0-0.95-0.04-1.59-0.12-1.9c-0.12-0.55-0.36-0.96-0.71-1.23c-0.35-0.28-0.8-0.41-1.37-0.41c-0.64,0-1.22,0.21-1.73,0.64
		c-0.51,0.42-0.84,0.95-1,1.58c-0.1,0.41-0.15,1.16-0.15,2.24v3.03h-1.06V58.57z"/>
	<path class="st0" d="M462.6,59.48l-0.68,0.71c-0.57-0.55-1.12-0.83-1.67-0.83c-0.34,0-0.64,0.11-0.89,0.34
		c-0.24,0.23-0.37,0.49-0.37,0.8c0,0.27,0.1,0.52,0.3,0.77c0.2,0.25,0.63,0.54,1.28,0.87c0.79,0.41,1.33,0.8,1.61,1.18
		c0.28,0.38,0.42,0.82,0.42,1.3c0,0.68-0.24,1.25-0.71,1.72c-0.48,0.47-1.07,0.71-1.79,0.71c-0.47,0-0.93-0.1-1.36-0.31
		c-0.43-0.21-0.79-0.49-1.07-0.86l0.67-0.76c0.54,0.61,1.12,0.92,1.73,0.92c0.43,0,0.79-0.14,1.09-0.41
		c0.3-0.27,0.45-0.59,0.45-0.96c0-0.3-0.1-0.57-0.29-0.81c-0.2-0.23-0.64-0.53-1.34-0.88c-0.74-0.38-1.25-0.76-1.52-1.14
		c-0.27-0.38-0.4-0.8-0.4-1.28c0-0.63,0.21-1.15,0.64-1.56c0.43-0.41,0.97-0.62,1.62-0.62C461.07,58.36,461.83,58.73,462.6,59.48z"
		/>
	<path class="st0" d="M465.1,55.51h1.06v3.06h1.68v0.92h-1.68v7.33h-1.06v-7.33h-1.45v-0.92h1.45V55.51z"/>
	<path class="st0" d="M469.49,55.18c0.24,0,0.45,0.09,0.62,0.26c0.17,0.17,0.25,0.38,0.25,0.62c0,0.24-0.08,0.44-0.25,0.61
		c-0.17,0.17-0.38,0.26-0.62,0.26c-0.24,0-0.44-0.09-0.61-0.26c-0.17-0.17-0.26-0.38-0.26-0.61c0-0.24,0.09-0.45,0.26-0.62
		C469.05,55.26,469.26,55.18,469.49,55.18z M468.96,58.57h1.06v8.25h-1.06V58.57z"/>
	<path class="st0" d="M472.85,55.51h1.06v3.06h1.68v0.92h-1.68v7.33h-1.06v-7.33h-1.45v-0.92h1.45V55.51z"/>
	<path class="st0" d="M476.74,58.57h1.06v3.85c0,0.94,0.05,1.59,0.15,1.94c0.15,0.51,0.44,0.91,0.87,1.2
		c0.43,0.29,0.94,0.44,1.53,0.44c0.59,0,1.09-0.14,1.51-0.43c0.41-0.29,0.7-0.66,0.85-1.13c0.11-0.32,0.16-0.99,0.16-2.02v-3.85
		h1.08v4.05c0,1.14-0.13,1.99-0.4,2.57c-0.27,0.58-0.67,1.03-1.2,1.35c-0.53,0.33-1.2,0.49-2.01,0.49c-0.8,0-1.47-0.16-2.01-0.49
		c-0.54-0.33-0.94-0.78-1.21-1.37c-0.27-0.58-0.4-1.46-0.4-2.64V58.57z"/>
	<path class="st0" d="M486.93,55.51h1.06v3.06h1.68v0.92h-1.68v7.33h-1.06v-7.33h-1.45v-0.92h1.45V55.51z"/>
	<path class="st0" d="M497.91,64.09l0.89,0.47c-0.29,0.58-0.63,1.04-1.02,1.4c-0.38,0.35-0.82,0.62-1.3,0.81
		c-0.48,0.19-1.03,0.28-1.63,0.28c-1.35,0-2.4-0.44-3.16-1.32c-0.76-0.88-1.14-1.88-1.14-2.99c0-1.05,0.32-1.98,0.96-2.8
		c0.82-1.04,1.91-1.56,3.27-1.56c1.41,0,2.53,0.53,3.37,1.6c0.6,0.75,0.9,1.69,0.91,2.82h-7.42c0.02,0.96,0.33,1.74,0.92,2.36
		c0.59,0.61,1.32,0.92,2.2,0.92c0.42,0,0.83-0.07,1.22-0.22c0.4-0.15,0.74-0.34,1.02-0.58C497.28,65.02,497.58,64.62,497.91,64.09z
		 M497.91,61.86c-0.14-0.57-0.35-1.02-0.62-1.36c-0.27-0.34-0.63-0.61-1.07-0.82c-0.45-0.21-0.91-0.31-1.41-0.31
		c-0.81,0-1.51,0.26-2.09,0.78c-0.42,0.38-0.74,0.95-0.96,1.71H497.91z"/>
</g>
<g>
	<path class="st0" d="M97.02,43.2c-1.15-1.82-2.38-4.09-3.71-6.79c-1.33-2.71-2-5.96-2-9.76c0-3.78,0.67-7.03,2-9.75
		c1.33-2.72,2.57-4.98,3.71-6.78h3.37c-1.71,3.12-2.93,6.04-3.68,8.76c-0.74,2.72-1.12,5.31-1.12,7.76c0,2.48,0.37,5.08,1.12,7.8
		c0.75,2.72,1.97,5.64,3.68,8.76H97.02z"/>
	<path class="st0" d="M118.55,36.34c-1.19-0.71-2.48-1.71-3.86-3.02c-1.38-1.31-2.48-2.78-3.27-4.42c-0.65,1.64-1.68,3.17-3.08,4.61
		c-1.4,1.43-2.66,2.48-3.76,3.14l-3.21-2.97c1.66-0.93,3.36-2.46,5.09-4.59c1.73-2.13,2.6-5.05,2.6-8.75v-7.1h4.6v7.1
		c0,3.71,0.89,6.56,2.66,8.55c1.77,1.99,3.38,3.41,4.83,4.25L118.55,36.34z M127.24,27.74v13.93h-4.34V11.63h4.34v11.81h4.05v4.3
		H127.24z"/>
	<path class="st0" d="M136.06,34.46c0.71-2.66,1.07-5.27,1.07-7.82c0-2.53-0.36-5.12-1.07-7.78c-0.71-2.66-1.92-5.51-3.63-8.53h2.95
		c1.15,1.8,2.37,4.04,3.66,6.72c1.3,2.69,1.95,5.88,1.95,9.59c0,3.73-0.65,6.94-1.95,9.61c-1.3,2.67-2.52,4.92-3.66,6.74h-2.95
		C134.14,39.97,135.35,37.13,136.06,34.46z"/>
	<path class="st0" d="M144.36,19.75V16.2h18.03v3.55H144.36z M159.28,29.75c-1.53,1-3.51,1.5-5.93,1.5c-2.27,0-4.21-0.5-5.82-1.5
		c-1.61-1-2.42-2.24-2.42-3.72c0-1.55,0.81-2.82,2.42-3.81c1.61-0.99,3.56-1.48,5.85-1.48c2.42,0,4.4,0.5,5.92,1.5
		c1.52,1,2.29,2.28,2.29,3.82C161.58,27.52,160.81,28.75,159.28,29.75z M148.28,40.98v-8.29h4.67v4.54h16.8v3.75H148.28z
		 M148.48,14.77v-3.41h9.7v3.41H148.48z M155.99,24.62c-0.74-0.31-1.59-0.46-2.54-0.46c-0.99,0-1.89,0.15-2.67,0.46
		c-0.79,0.31-1.18,0.77-1.18,1.38c0,0.64,0.4,1.1,1.18,1.38c0.79,0.29,1.68,0.43,2.67,0.43c0.95,0,1.8-0.14,2.54-0.43
		c0.74-0.28,1.12-0.73,1.12-1.35C157.1,25.4,156.73,24.92,155.99,24.62z M168.87,24.6v9.05h-4.35V11.63h4.35v8.87h3.79v4.1H168.87z"
		/>
	<path class="st0" d="M189.37,26.78v4.4h9.15v10.48h-4.41v-6.55h-17.54v-3.92h8.2v-4.4h-11.31v-3.93h19.81
		c0.2-0.89,0.4-1.93,0.62-3.14c0.21-1.2,0.37-2.3,0.45-3.28h-17.9v-3.92h22.73c0,1.89-0.23,3.92-0.7,6.11
		c-0.46,2.18-0.78,3.6-0.96,4.23h4.47v3.93H189.37z"/>
	<path class="st0" d="M216.07,24.96c-2.69,2.79-5.99,4.67-9.91,5.65l-2.56-3.11c3.48-0.71,6.25-2.16,8.3-4.35
		c2.05-2.2,3.08-4.17,3.08-5.92h-9.24v-3.89h14.37C220.11,18.3,218.76,22.17,216.07,24.96z M208.98,40.98v-9.42h4.41v5.5h17.19v3.92
		H208.98z M225.62,33.34v-9.01h-5.61V20.4h5.61v-8.77h4.31v21.71H225.62z"/>
	<path class="st0" d="M249.65,30.74v2.63h8.66v8.29h-4.38v-4.51h-17.8v-3.79h8.98v-2.63h-12v-3.76h28.53v3.76H249.65z M257.69,25.86
		c-0.47-0.05-1.82-0.27-4.04-0.68c-2.22-0.41-4.31-1.41-6.27-3c-1.15,1.32-3.03,2.25-5.64,2.8c-2.62,0.55-4.17,0.84-4.67,0.89
		l-2.34-3.35c0.76-0.07,2.27-0.32,4.54-0.77c2.27-0.44,3.85-1.19,4.73-2.24h-7.98v-3.48h22.7v3.48h-7.98
		c1.08,1.05,2.71,1.79,4.9,2.24c2.18,0.44,3.64,0.7,4.38,0.77L257.69,25.86z M241.15,14.46v-3.45h12.39v3.45H241.15z"/>
	<path class="st0" d="M279.48,26.89v1.67h8.66v7.92h-16.89v1.37h17.54v3.48h-22.5v-7.95h16.89v-1.37h-16.89v-3.45h8.66v-1.67h-12
		v-3.55h28.53v3.55H279.48z M266.28,21.8v-9.42h21.86v9.42H266.28z M283.83,15.96h-13.23v2.25h13.23V15.96z"/>
	<path class="st0" d="M293.1,22.79V19h14.88v3.79H293.1z M305.53,35.5c-1.33,1.15-2.99,1.72-4.98,1.72c-1.77,0-3.37-0.56-4.8-1.69
		c-1.43-1.13-2.14-2.71-2.14-4.76c0-1.96,0.71-3.51,2.12-4.66c1.42-1.15,3.02-1.72,4.81-1.72c1.97,0,3.62,0.58,4.96,1.74
		c1.34,1.16,2.01,2.71,2.01,4.64C307.53,32.78,306.86,34.36,305.53,35.5z M296.37,17.16v-3.65h8.24v3.65H296.37z M298.58,32.89
		c0.56,0.46,1.22,0.68,1.98,0.68c0.82,0,1.5-0.23,2.03-0.7c0.53-0.47,0.79-1.15,0.79-2.07c0-0.89-0.26-1.57-0.78-2.05
		c-0.52-0.48-1.2-0.72-2.04-0.72c-0.78,0-1.44,0.24-1.99,0.72c-0.55,0.48-0.83,1.17-0.83,2.08
		C297.74,31.76,298.02,32.44,298.58,32.89z M315.86,41.67v-14.1h-2.3V40.3h-4.15V12.31h4.15v10.41h2.3V11.63h4.15v30.04H315.86z"/>
	<path class="st0" d="M335.67,36.55c-0.89-0.52-1.78-1.24-2.69-2.15c-0.91-0.91-1.65-1.93-2.24-3.07c-0.41,1.09-1.14,2.12-2.19,3.09
		c-1.05,0.97-2.11,1.76-3.19,2.37l-3.05-3c1.64-0.75,3.06-1.93,4.26-3.55c1.2-1.62,1.8-3.61,1.8-5.97V23.4h-4.7v-4.03h14.01v4.03
		h-4.6v0.85c0,2.34,0.55,4.23,1.64,5.67c1.09,1.43,2.3,2.55,3.62,3.34L335.67,36.55z M326.69,17.23v-3.86h8.04v3.86H326.69z
		 M339.76,40.3V28.9h-3.44v-4.13h3.44V12.31h4.18V40.3H339.76z M345.92,41.67V11.63h4.18v30.04H345.92z"/>
	<path class="st0" d="M365.84,28.61c-2.62,3.54-5.7,6.25-9.22,8.14l-3.37-2.66c3.33-1.43,6.05-3.69,8.16-6.77
		c2.11-3.08,3.16-5.93,3.16-8.55h-9.47v-3.89h14.69C369.79,20.49,368.47,25.07,365.84,28.61z M374.65,41.67V11.63h4.35v30.04H374.65
		z"/>
	<path class="st0" d="M398.94,26.89v1.88h8.4v7.71h-16.77v1.43h17.44v3.41h-22.28v-7.82h16.73v-1.4h-16.73v-3.35h8.4v-1.88h-11.87
		v-3.65h28.53v3.65H398.94z M406.72,22.24c-1.49-0.16-3.38-0.77-5.66-1.83c-2.28-1.06-3.75-2.17-4.4-3.33
		c-0.82,1.11-2.3,2.19-4.42,3.23c-2.13,1.04-4.1,1.67-5.92,1.89l-2.43-3.11c2.08-0.34,4.31-1.12,6.71-2.34
		c2.4-1.22,3.6-2.66,3.6-4.32v-1.02h4.9v1.02c0,1.66,1.12,3.08,3.36,4.25c2.24,1.17,4.47,1.98,6.7,2.41L406.72,22.24z"/>
	<path class="st0" d="M434.25,33.3v-7.92h-6.07c-0.73,0.93-1.68,1.69-2.82,2.27c-1.15,0.58-2.42,0.87-3.83,0.87
		c-2.42,0-4.42-0.81-5.98-2.42c-1.57-1.62-2.35-3.53-2.35-5.73c0-2.21,0.78-4.12,2.35-5.73c1.57-1.62,3.56-2.42,5.98-2.42
		c1.28,0,2.44,0.24,3.5,0.72c1.06,0.48,1.96,1.11,2.69,1.91h6.52v-3.21h4.38V33.3H434.25z M417.48,40.98v-10h4.41v6.08h17.38v3.92
		H417.48z M418.65,17.38c-0.69,0.85-1.04,1.85-1.04,2.99c0,1.11,0.34,2.1,1.04,2.97c0.69,0.87,1.65,1.3,2.89,1.3
		c1.28,0,2.25-0.43,2.93-1.3c0.68-0.86,1.02-1.85,1.02-2.97c0-1.14-0.34-2.13-1.02-2.99c-0.68-0.85-1.66-1.28-2.93-1.28
		C420.3,16.1,419.34,16.53,418.65,17.38z M434.25,18.76h-4.51c0.04,0.25,0.08,0.51,0.11,0.79c0.03,0.27,0.05,0.55,0.05,0.82
		c0,0.18-0.01,0.36-0.02,0.55c-0.01,0.18-0.04,0.36-0.08,0.55h4.44V18.76z"/>
	<path class="st0" d="M457.72,29.31v12.36h-4.47V29.31h-11.31v-3.92h19.42c0.22-0.96,0.47-2.27,0.76-3.94
		c0.29-1.67,0.47-3.17,0.54-4.49h-17.74v-3.93h22.6c0,2.62-0.26,5.18-0.78,7.7c-0.52,2.51-0.83,4.07-0.94,4.66h4.67v3.92H457.72z"/>
	<path class="st0" d="M488.08,27.14c-2.14,0.15-3.74,0.23-4.8,0.26v4.34h-4.41v-4.3h-6.13v-3.89h9.56c1.47,0,3.44-0.1,5.9-0.31
		c2.47-0.21,4.12-0.39,4.96-0.55v3.89C491.91,26.81,490.21,27,488.08,27.14z M488.35,12.7c1.26,1.15,1.9,2.46,1.9,3.94
		c0,1.52-0.65,2.85-1.95,3.98c-1.3,1.13-3.2,1.69-5.71,1.69c-2.51,0-4.41-0.57-5.71-1.71c-1.3-1.14-1.95-2.46-1.95-3.96
		c0-1.48,0.65-2.79,1.96-3.94c1.31-1.15,3.21-1.72,5.69-1.72C485.17,10.98,487.09,11.56,488.35,12.7z M477.34,40.98v-8.06h4.41v4.13
		h17.51v3.92H477.34z M485.3,15.15c-0.53-0.55-1.43-0.82-2.71-0.82c-1.23,0-2.11,0.27-2.64,0.82c-0.53,0.55-0.8,1.05-0.8,1.5
		c0,0.43,0.28,0.91,0.84,1.43c0.56,0.52,1.44,0.79,2.63,0.79c1.25,0,2.14-0.26,2.67-0.79c0.53-0.52,0.8-1,0.8-1.43
		C486.1,16.19,485.83,15.69,485.3,15.15z M494.3,34.22v-2.22h-6.46v-3.58h6.46V11.63h4.31v22.59H494.3z"/>
</g>
<g>
	<g>
		<g>
			<path class="st0" d="M45.83,0H1.26v76.95h44.56c13.69,0,24.79-17.23,24.79-38.48C70.62,17.23,59.52,0,45.83,0z M46.93,66.49H8.26
				V46.77h38.67c3.51,0,6.35,4.41,6.35,9.86S50.44,66.49,46.93,66.49z M46.93,29.29H8.26V9.57h38.67c3.51,0,6.35,4.41,6.35,9.86
				S50.44,29.29,46.93,29.29z"/>
		</g>
	</g>
	<g>
		<g>
			<g>
				<path class="st1" d="M33.13,29.29h4.4c4.35,0,6.22,3.26,6.22,8.47c0,5.36-2.03,9-6.51,9h-4.11V29.29z M41.01,37.96
					c0-4.34-1.21-5.67-3.71-5.67H35.8v11.49h1.32C40.01,43.77,41.01,41.58,41.01,37.96z"/>
			</g>
			<g>
				<path class="st1" d="M20.75,29.29h6.33c3.77,0,4.83,1.88,4.83,4.27c0,2.34-1.41,3.6-3.02,4.08v0.05c2.53,0.34,3.7,1.86,3.7,4.27
					c0,3.57-2.56,4.8-6.02,4.8h-5.82V29.29z M28.58,34.17c0-1.88-1.15-2-2.67-2h-1.76v4.34h1.26C26.99,36.51,28.58,36.2,28.58,34.17
					z M28.97,41.63c0-1.95-1.23-2.29-2.76-2.29h-2.07v4.56h1.74C27.74,43.89,28.97,43.53,28.97,41.63z"/>
			</g>
			<g>
				<path class="st1" d="M61.79,46.77l-2.89-6.64h-2v6.64h-3.09V29.29h5.69c3.63,0,4.84,2.34,4.84,4.92c0,2.58-1.03,4.17-2.52,5
					l3.31,7.55H61.79z M61.14,34.58c0-1.67-0.87-2.29-2.52-2.29H56.9v4.92h1.59C59.95,37.21,61.14,36.56,61.14,34.58z"/>
			</g>
			<g>
				<path class="st1" d="M65.87,46.77V29.29h3.67v17.47H65.87z"/>
			</g>
			<g>
				<polygon class="st1" points="42.91,29.29 42.91,32.43 46.29,32.43 46.29,46.77 49.98,46.77 49.98,32.43 53.31,32.43 
					53.31,29.29 				"/>
			</g>
		</g>
		<polygon class="st1" points="19.29,45.67 19.29,45.67 12.93,39.72 12.93,39.72 11.53,38.41 11.53,38.03 13.3,36.12 13.3,36.14 
			19.67,29.29 16.07,29.29 13.3,32.24 13.3,32.25 11.53,34.13 11.53,33.18 11.53,29.29 8.49,29.29 8.49,34.19 8.49,37.03 8.49,39.7 
			8.49,42.41 8.49,46.77 11.53,46.77 11.53,43.18 11.53,42.05 13.72,44.08 13.72,44.1 16.6,46.77 20.46,46.77 		"/>
	</g>
</g>
</svg>
