<?xml version="1.0" encoding="utf-8"?>
<!-- Generator: Adobe Illustrator 25.0.0, SVG Export Plug-In . SVG Version: 6.00 Build 0)  -->
<svg version="1.1" xmlns="http://www.w3.org/2000/svg" xmlns:xlink="http://www.w3.org/1999/xlink" x="0px" y="0px"
	 viewBox="0 0 500 78.89" style="enable-background:new 0 0 500 78.89;" xml:space="preserve">
<style type="text/css">
	.st0{display:none;}
	.st1{display:inline;}
	.st2{fill:#15427E;}
	.st3{fill:#248235;}
</style>
<g id="Layer_1" class="st0">
	<g class="st1">
		<path class="st2" d="M62.11-34.1h1.22v4.48l4.77-4.48h1.6l-5.74,5.36l6.19,6.59h-1.59l-5.23-5.56v5.56h-1.22V-34.1z"/>
		<path class="st2" d="M75.6-31.21c1.36,0,2.49,0.49,3.39,1.48c0.81,0.9,1.22,1.96,1.22,3.19c0,1.23-0.43,2.31-1.29,3.24
			c-0.86,0.92-1.96,1.38-3.32,1.38c-1.35,0-2.46-0.46-3.32-1.38c-0.86-0.92-1.29-2-1.29-3.24c0-1.22,0.41-2.29,1.22-3.18
			C73.1-30.72,74.23-31.21,75.6-31.21z M75.6-30.1c-0.95,0-1.76,0.35-2.44,1.05c-0.68,0.7-1.02,1.54-1.02,2.53
			c0,0.64,0.15,1.23,0.46,1.79c0.31,0.55,0.73,0.98,1.26,1.28c0.53,0.3,1.1,0.45,1.73,0.45s1.21-0.15,1.74-0.45
			c0.53-0.3,0.95-0.73,1.25-1.28c0.31-0.55,0.46-1.15,0.46-1.79c0-0.99-0.34-1.84-1.02-2.53S76.54-30.1,75.6-30.1z"/>
		<path class="st2" d="M81.55-30.99h1.16v1.29c0.35-0.51,0.71-0.89,1.1-1.14c0.38-0.25,0.78-0.38,1.2-0.38c0.32,0,0.65,0.1,1.01,0.3
			l-0.59,0.96c-0.24-0.1-0.44-0.15-0.6-0.15c-0.38,0-0.74,0.16-1.1,0.47c-0.35,0.31-0.62,0.79-0.8,1.45
			c-0.14,0.5-0.21,1.52-0.21,3.05v2.99h-1.16V-30.99z"/>
		<path class="st2" d="M94.09-25.08l0.96,0.5c-0.32,0.62-0.68,1.12-1.09,1.49c-0.41,0.38-0.87,0.67-1.39,0.86
			c-0.52,0.2-1.1,0.3-1.75,0.3c-1.44,0-2.57-0.47-3.38-1.42c-0.81-0.95-1.22-2.01-1.22-3.2c0-1.12,0.34-2.12,1.03-3
			c0.87-1.12,2.04-1.67,3.5-1.67c1.51,0,2.71,0.57,3.61,1.71c0.64,0.81,0.96,1.81,0.97,3.02h-7.95c0.02,1.03,0.35,1.87,0.98,2.52
			c0.64,0.66,1.42,0.98,2.35,0.98c0.45,0,0.89-0.08,1.31-0.23c0.43-0.16,0.79-0.36,1.09-0.62S93.74-24.5,94.09-25.08z M94.09-27.46
			c-0.15-0.61-0.37-1.09-0.66-1.45c-0.29-0.36-0.67-0.65-1.15-0.88c-0.48-0.22-0.98-0.33-1.5-0.33c-0.87,0-1.61,0.28-2.24,0.84
			c-0.45,0.41-0.8,1.01-1.03,1.83H94.09z"/>
		<path class="st2" d="M105.92-30.99v8.84h-1.12v-1.52c-0.47,0.58-1.01,1.01-1.6,1.31c-0.59,0.29-1.24,0.44-1.94,0.44
			c-1.25,0-2.32-0.45-3.2-1.36c-0.89-0.91-1.33-2.01-1.33-3.31c0-1.27,0.45-2.36,1.34-3.26c0.89-0.9,1.97-1.36,3.22-1.36
			c0.72,0,1.38,0.15,1.97,0.46c0.59,0.31,1.1,0.77,1.55,1.39v-1.63H105.92z M101.38-30.12c-0.63,0-1.22,0.16-1.75,0.47
			c-0.53,0.31-0.96,0.75-1.28,1.31c-0.32,0.56-0.47,1.16-0.47,1.78c0,0.62,0.16,1.22,0.48,1.78c0.32,0.57,0.75,1.01,1.29,1.33
			c0.54,0.32,1.12,0.47,1.73,0.47c0.62,0,1.21-0.16,1.77-0.47c0.56-0.31,0.99-0.74,1.29-1.27c0.3-0.54,0.45-1.14,0.45-1.81
			c0-1.02-0.33-1.88-1.01-2.56C103.19-29.77,102.36-30.12,101.38-30.12z"/>
		<path class="st2" d="M112.64-34.1H115c0.95,0,1.67,0.11,2.19,0.34c0.51,0.23,0.91,0.57,1.2,1.04c0.3,0.47,0.44,0.98,0.44,1.55
			c0,0.53-0.13,1.01-0.39,1.45c-0.26,0.44-0.64,0.79-1.14,1.06c0.62,0.21,1.1,0.46,1.43,0.74c0.33,0.28,0.6,0.63,0.78,1.03
			c0.19,0.4,0.28,0.84,0.28,1.31c0,0.96-0.35,1.77-1.05,2.43c-0.7,0.66-1.64,1-2.82,1h-3.28V-34.1z M113.81-32.93v3.83h0.68
			c0.83,0,1.44-0.08,1.83-0.23c0.39-0.15,0.7-0.4,0.93-0.73c0.23-0.33,0.34-0.7,0.34-1.11c0-0.55-0.19-0.98-0.57-1.29
			c-0.38-0.31-0.99-0.47-1.83-0.47H113.81z M113.81-27.9v4.58h1.48c0.87,0,1.51-0.09,1.92-0.26c0.41-0.17,0.74-0.44,0.98-0.8
			c0.24-0.36,0.37-0.76,0.37-1.18c0-0.53-0.17-0.99-0.52-1.39c-0.35-0.39-0.83-0.67-1.43-0.81c-0.41-0.1-1.12-0.15-2.13-0.15H113.81
			z"/>
		<path class="st2" d="M121.49-30.99h1.14v4.13c0,1.01,0.05,1.7,0.16,2.08c0.16,0.54,0.47,0.97,0.93,1.28
			c0.46,0.32,1,0.47,1.64,0.47c0.63,0,1.17-0.15,1.62-0.46c0.44-0.31,0.75-0.71,0.91-1.21c0.11-0.34,0.17-1.06,0.17-2.17v-4.13h1.16
			v4.34c0,1.22-0.14,2.14-0.43,2.75c-0.28,0.62-0.71,1.1-1.28,1.45s-1.29,0.52-2.15,0.52c-0.86,0-1.58-0.17-2.15-0.52
			c-0.58-0.35-1.01-0.84-1.29-1.46c-0.28-0.62-0.43-1.57-0.43-2.82V-30.99z"/>
		<path class="st2" d="M131.81-34.62c0.26,0,0.48,0.09,0.66,0.28c0.18,0.18,0.27,0.41,0.27,0.67c0,0.25-0.09,0.47-0.27,0.66
			c-0.18,0.18-0.41,0.28-0.66,0.28c-0.25,0-0.47-0.09-0.66-0.28c-0.18-0.18-0.28-0.4-0.28-0.66c0-0.26,0.09-0.48,0.28-0.67
			C131.34-34.53,131.56-34.62,131.81-34.62z M131.25-30.99h1.14v8.84h-1.14V-30.99z"/>
		<path class="st2" d="M134.24-34.4h1.14v12.25h-1.14V-34.4z"/>
		<path class="st2" d="M146.23-34.4v12.25h-1.12v-1.52c-0.48,0.58-1.01,1.01-1.6,1.31s-1.24,0.44-1.94,0.44
			c-1.25,0-2.32-0.45-3.2-1.36c-0.89-0.91-1.33-2.01-1.33-3.31c0-1.27,0.45-2.36,1.34-3.26c0.89-0.9,1.97-1.36,3.22-1.36
			c0.73,0,1.38,0.15,1.97,0.46c0.59,0.31,1.1,0.77,1.55,1.39v-5.04H146.23z M141.69-30.12c-0.63,0-1.22,0.16-1.75,0.47
			c-0.53,0.31-0.96,0.75-1.28,1.31c-0.32,0.56-0.47,1.16-0.47,1.78c0,0.62,0.16,1.22,0.48,1.78c0.32,0.57,0.75,1.01,1.28,1.33
			c0.54,0.32,1.12,0.47,1.73,0.47c0.62,0,1.21-0.16,1.77-0.47c0.56-0.31,0.99-0.74,1.29-1.27c0.3-0.54,0.45-1.14,0.45-1.81
			c0-1.02-0.34-1.88-1.01-2.56C143.5-29.77,142.67-30.12,141.69-30.12z"/>
		<path class="st2" d="M148.87-34.62c0.26,0,0.48,0.09,0.66,0.28c0.18,0.18,0.27,0.41,0.27,0.67c0,0.25-0.09,0.47-0.27,0.66
			c-0.18,0.18-0.41,0.28-0.66,0.28c-0.25,0-0.47-0.09-0.66-0.28c-0.18-0.18-0.28-0.4-0.28-0.66c0-0.26,0.09-0.48,0.28-0.67
			C148.4-34.53,148.61-34.62,148.87-34.62z M148.3-30.99h1.14v8.84h-1.14V-30.99z"/>
		<path class="st2" d="M151.47-30.99h1.14v1.58c0.45-0.61,0.96-1.06,1.51-1.36c0.55-0.3,1.15-0.45,1.8-0.45
			c0.66,0,1.25,0.17,1.76,0.5c0.51,0.33,0.89,0.79,1.13,1.36c0.24,0.57,0.37,1.45,0.37,2.66v4.55h-1.14v-4.21
			c0-1.02-0.04-1.7-0.13-2.04c-0.13-0.58-0.38-1.02-0.76-1.32c-0.37-0.3-0.86-0.44-1.46-0.44c-0.69,0-1.3,0.23-1.85,0.68
			c-0.55,0.45-0.9,1.02-1.08,1.69c-0.11,0.44-0.16,1.24-0.16,2.4v3.24h-1.14V-30.99z"/>
		<path class="st2" d="M168.9-30.99h1.14v7.04c0,1.24-0.11,2.15-0.32,2.72c-0.3,0.81-0.81,1.44-1.55,1.88
			c-0.74,0.44-1.62,0.66-2.65,0.66c-0.76,0-1.44-0.11-2.04-0.32c-0.6-0.22-1.09-0.5-1.47-0.86c-0.38-0.36-0.73-0.89-1.05-1.58h1.23
			c0.33,0.58,0.77,1.02,1.3,1.3c0.53,0.28,1.19,0.42,1.98,0.42c0.78,0,1.43-0.14,1.96-0.43c0.53-0.29,0.91-0.65,1.14-1.09
			s0.34-1.14,0.34-2.12v-0.45c-0.43,0.54-0.95,0.96-1.57,1.25c-0.62,0.29-1.27,0.43-1.97,0.43c-0.81,0-1.58-0.2-2.29-0.6
			s-1.27-0.95-1.66-1.63c-0.39-0.68-0.58-1.43-0.58-2.25s0.2-1.58,0.61-2.29c0.41-0.71,0.97-1.26,1.69-1.68
			c0.72-0.41,1.48-0.62,2.27-0.62c0.66,0,1.28,0.14,1.85,0.41c0.57,0.27,1.12,0.72,1.66,1.35V-30.99z M165.54-30.12
			c-0.64,0-1.24,0.16-1.79,0.47c-0.55,0.31-0.99,0.74-1.3,1.29c-0.31,0.55-0.47,1.14-0.47,1.78c0,0.97,0.33,1.77,0.98,2.4
			c0.65,0.63,1.49,0.95,2.52,0.95c1.04,0,1.88-0.31,2.52-0.94c0.64-0.63,0.96-1.45,0.96-2.48c0-0.67-0.15-1.26-0.44-1.78
			c-0.29-0.52-0.71-0.94-1.24-1.24C166.74-29.97,166.16-30.12,165.54-30.12z"/>
		<path class="st2" d="M176.6-22.15V-34.1h2.48c1.79,0,3.08,0.14,3.89,0.43c1.16,0.41,2.06,1.11,2.72,2.11
			c0.65,1,0.98,2.19,0.98,3.58c0,1.2-0.26,2.25-0.78,3.16c-0.52,0.91-1.19,1.58-2.01,2.01s-1.98,0.65-3.47,0.65H176.6z
			 M177.74-23.28h1.38c1.65,0,2.8-0.1,3.44-0.31c0.9-0.29,1.6-0.82,2.12-1.58c0.52-0.76,0.77-1.69,0.77-2.79
			c0-1.15-0.28-2.14-0.84-2.95c-0.56-0.82-1.33-1.38-2.33-1.68c-0.75-0.23-1.98-0.34-3.69-0.34h-0.85V-23.28z"/>
		<path class="st2" d="M188.85-34.62c0.26,0,0.48,0.09,0.66,0.28c0.18,0.18,0.27,0.41,0.27,0.67c0,0.25-0.09,0.47-0.27,0.66
			c-0.18,0.18-0.41,0.28-0.66,0.28c-0.25,0-0.47-0.09-0.66-0.28c-0.18-0.18-0.28-0.4-0.28-0.66c0-0.26,0.09-0.48,0.28-0.67
			C188.38-34.53,188.59-34.62,188.85-34.62z M188.28-30.99h1.14v8.84h-1.14V-30.99z"/>
		<path class="st2" d="M195.89-30.02l-0.73,0.76c-0.61-0.59-1.2-0.88-1.79-0.88c-0.37,0-0.68,0.12-0.95,0.36
			c-0.26,0.24-0.39,0.53-0.39,0.85c0,0.29,0.11,0.56,0.33,0.82c0.22,0.27,0.67,0.58,1.37,0.93c0.85,0.44,1.42,0.86,1.73,1.27
			c0.3,0.41,0.45,0.87,0.45,1.39c0,0.73-0.26,1.34-0.76,1.84c-0.51,0.5-1.15,0.76-1.91,0.76c-0.51,0-1-0.11-1.46-0.33
			c-0.46-0.22-0.85-0.53-1.15-0.92l0.71-0.81c0.58,0.66,1.2,0.98,1.85,0.98c0.46,0,0.84-0.15,1.16-0.44
			c0.32-0.29,0.48-0.64,0.48-1.03c0-0.33-0.11-0.61-0.32-0.87c-0.21-0.25-0.69-0.56-1.43-0.94c-0.8-0.41-1.34-0.82-1.63-1.22
			c-0.29-0.4-0.43-0.86-0.43-1.37c0-0.67,0.23-1.23,0.69-1.67c0.46-0.44,1.04-0.67,1.74-0.67
			C194.25-31.21,195.07-30.82,195.89-30.02z"/>
		<path class="st2" d="M197.56-30.99h1.14v1.53c0.39-0.56,0.8-0.98,1.22-1.23c0.58-0.35,1.18-0.52,1.81-0.52
			c0.43,0,0.83,0.08,1.22,0.25c0.38,0.17,0.7,0.39,0.94,0.67c0.24,0.28,0.45,0.68,0.63,1.2c0.38-0.69,0.85-1.22,1.42-1.58
			c0.57-0.36,1.18-0.54,1.83-0.54c0.61,0,1.15,0.15,1.62,0.46c0.47,0.31,0.81,0.74,1.04,1.29c0.23,0.55,0.34,1.38,0.34,2.49v4.82
			h-1.16v-4.82c0-0.95-0.07-1.6-0.2-1.95c-0.13-0.35-0.37-0.64-0.69-0.86c-0.33-0.22-0.72-0.33-1.17-0.33
			c-0.55,0-1.06,0.16-1.51,0.49c-0.46,0.33-0.79,0.76-1,1.3c-0.21,0.54-0.32,1.44-0.32,2.71v3.46h-1.14v-4.52
			c0-1.07-0.07-1.79-0.2-2.17c-0.13-0.38-0.36-0.69-0.7-0.92c-0.33-0.23-0.72-0.34-1.18-0.34c-0.53,0-1.02,0.16-1.48,0.48
			c-0.46,0.32-0.79,0.74-1.01,1.28c-0.22,0.54-0.33,1.36-0.33,2.46v3.74h-1.14V-30.99z"/>
		<path class="st2" d="M221.64-30.99v8.84h-1.12v-1.52c-0.47,0.58-1.01,1.01-1.6,1.31c-0.59,0.29-1.24,0.44-1.94,0.44
			c-1.25,0-2.32-0.45-3.2-1.36c-0.89-0.91-1.33-2.01-1.33-3.31c0-1.27,0.45-2.36,1.34-3.26c0.89-0.9,1.97-1.36,3.22-1.36
			c0.72,0,1.38,0.15,1.97,0.46c0.59,0.31,1.1,0.77,1.55,1.39v-1.63H221.64z M217.1-30.12c-0.63,0-1.22,0.16-1.75,0.47
			c-0.53,0.31-0.96,0.75-1.28,1.31c-0.32,0.56-0.47,1.16-0.47,1.78c0,0.62,0.16,1.22,0.48,1.78c0.32,0.57,0.75,1.01,1.29,1.33
			c0.54,0.32,1.12,0.47,1.73,0.47c0.62,0,1.21-0.16,1.77-0.47c0.56-0.31,0.99-0.74,1.29-1.27c0.3-0.54,0.45-1.14,0.45-1.81
			c0-1.02-0.33-1.88-1.01-2.56C218.91-29.77,218.08-30.12,217.1-30.12z"/>
		<path class="st2" d="M223.87-30.99h1.14v1.58c0.45-0.61,0.96-1.06,1.51-1.36c0.55-0.3,1.15-0.45,1.8-0.45
			c0.66,0,1.25,0.17,1.76,0.5c0.51,0.33,0.89,0.79,1.13,1.36c0.24,0.57,0.37,1.45,0.37,2.66v4.55h-1.14v-4.21
			c0-1.02-0.04-1.7-0.13-2.04c-0.13-0.58-0.38-1.02-0.76-1.32c-0.37-0.3-0.86-0.44-1.46-0.44c-0.69,0-1.3,0.23-1.85,0.68
			c-0.55,0.45-0.9,1.02-1.08,1.69c-0.11,0.44-0.16,1.24-0.16,2.4v3.24h-1.14V-30.99z"/>
		<path class="st2" d="M234.67-34.27h1.14v3.28h1.8V-30h-1.8v7.85h-1.14V-30h-1.55v-0.98h1.55V-34.27z"/>
		<path class="st2" d="M238.81-34.4h1.14v12.25h-1.14V-34.4z"/>
		<path class="st2" d="M242.37-34.62c0.26,0,0.48,0.09,0.66,0.28c0.18,0.18,0.27,0.41,0.27,0.67c0,0.25-0.09,0.47-0.27,0.66
			c-0.18,0.18-0.41,0.28-0.66,0.28c-0.25,0-0.47-0.09-0.66-0.28c-0.18-0.18-0.28-0.4-0.28-0.66c0-0.26,0.09-0.48,0.28-0.67
			C241.9-34.53,242.12-34.62,242.37-34.62z M241.81-30.99h1.14v8.84h-1.14V-30.99z"/>
		<path class="st2" d="M244.98-30.99h1.14v1.58c0.45-0.61,0.96-1.06,1.51-1.36c0.55-0.3,1.15-0.45,1.8-0.45
			c0.66,0,1.25,0.17,1.76,0.5c0.51,0.33,0.89,0.79,1.13,1.36c0.24,0.57,0.37,1.45,0.37,2.66v4.55h-1.14v-4.21
			c0-1.02-0.04-1.7-0.13-2.04c-0.13-0.58-0.38-1.02-0.76-1.32c-0.37-0.3-0.86-0.44-1.46-0.44c-0.69,0-1.3,0.23-1.85,0.68
			c-0.55,0.45-0.9,1.02-1.08,1.69c-0.11,0.44-0.16,1.24-0.16,2.4v3.24h-1.14V-30.99z"/>
		<path class="st2" d="M262.41-30.99h1.14v7.04c0,1.24-0.11,2.15-0.32,2.72c-0.3,0.81-0.81,1.44-1.55,1.88
			c-0.74,0.44-1.62,0.66-2.65,0.66c-0.76,0-1.44-0.11-2.04-0.32c-0.6-0.22-1.09-0.5-1.47-0.86c-0.38-0.36-0.73-0.89-1.05-1.58h1.23
			c0.33,0.58,0.77,1.02,1.3,1.3c0.53,0.28,1.19,0.42,1.98,0.42c0.77,0,1.43-0.14,1.96-0.43c0.53-0.29,0.91-0.65,1.14-1.09
			c0.23-0.44,0.34-1.14,0.34-2.12v-0.45c-0.43,0.54-0.95,0.96-1.57,1.25c-0.62,0.29-1.27,0.43-1.97,0.43c-0.81,0-1.58-0.2-2.29-0.6
			c-0.72-0.4-1.27-0.95-1.66-1.63c-0.39-0.68-0.58-1.43-0.58-2.25s0.2-1.58,0.61-2.29c0.41-0.71,0.97-1.26,1.69-1.68
			s1.48-0.62,2.27-0.62c0.66,0,1.28,0.14,1.85,0.41c0.57,0.27,1.12,0.72,1.66,1.35V-30.99z M259.05-30.12
			c-0.64,0-1.24,0.16-1.79,0.47c-0.55,0.31-0.99,0.74-1.3,1.29c-0.31,0.55-0.47,1.14-0.47,1.78c0,0.97,0.33,1.77,0.98,2.4
			c0.65,0.63,1.49,0.95,2.52,0.95c1.04,0,1.88-0.31,2.52-0.94c0.64-0.63,0.96-1.45,0.96-2.48c0-0.67-0.15-1.26-0.44-1.78
			c-0.29-0.52-0.71-0.94-1.24-1.24C260.25-29.97,259.67-30.12,259.05-30.12z"/>
		<path class="st2" d="M268.92-32.93v-1.17h6.55v1.17h-2.66v10.78h-1.22v-10.78H268.92z"/>
		<path class="st2" d="M284.11-25.08l0.96,0.5c-0.32,0.62-0.68,1.12-1.09,1.49c-0.41,0.38-0.87,0.67-1.39,0.86
			c-0.52,0.2-1.1,0.3-1.75,0.3c-1.44,0-2.57-0.47-3.38-1.42c-0.81-0.95-1.22-2.01-1.22-3.2c0-1.12,0.34-2.12,1.03-3
			c0.87-1.12,2.04-1.67,3.5-1.67c1.51,0,2.71,0.57,3.61,1.71c0.64,0.81,0.96,1.81,0.97,3.02h-7.95c0.02,1.03,0.35,1.87,0.98,2.52
			c0.64,0.66,1.42,0.98,2.35,0.98c0.45,0,0.89-0.08,1.31-0.23c0.43-0.16,0.79-0.36,1.09-0.62C283.44-24.09,283.76-24.5,284.11-25.08
			z M284.11-27.46c-0.15-0.61-0.37-1.09-0.66-1.45c-0.29-0.36-0.67-0.65-1.15-0.88c-0.48-0.22-0.98-0.33-1.5-0.33
			c-0.87,0-1.61,0.28-2.24,0.84c-0.45,0.41-0.8,1.01-1.03,1.83H284.11z"/>
		<path class="st2" d="M295.72-29.15l-0.9,0.56c-0.78-1.03-1.84-1.55-3.19-1.55c-1.08,0-1.97,0.35-2.68,1.04
			c-0.71,0.69-1.06,1.53-1.06,2.52c0,0.64,0.16,1.25,0.49,1.82c0.33,0.57,0.78,1.01,1.35,1.32c0.57,0.31,1.21,0.47,1.92,0.47
			c1.3,0,2.36-0.52,3.18-1.55l0.9,0.59c-0.42,0.64-0.99,1.13-1.7,1.48s-1.52,0.53-2.43,0.53c-1.4,0-2.55-0.44-3.47-1.33
			c-0.92-0.89-1.38-1.97-1.38-3.24c0-0.85,0.22-1.65,0.65-2.38c0.43-0.73,1.02-1.31,1.77-1.72s1.59-0.62,2.52-0.62
			c0.58,0,1.15,0.09,1.69,0.27c0.55,0.18,1,0.41,1.39,0.7C295.13-29.96,295.45-29.59,295.72-29.15z"/>
		<path class="st2" d="M297.57-34.4h1.14v4.99c0.46-0.61,0.97-1.06,1.52-1.36c0.55-0.3,1.15-0.45,1.79-0.45
			c0.66,0,1.25,0.17,1.76,0.5c0.51,0.33,0.89,0.79,1.13,1.35c0.24,0.57,0.37,1.45,0.37,2.66v4.55h-1.14v-4.21
			c0-1.02-0.04-1.7-0.12-2.04c-0.14-0.58-0.4-1.02-0.77-1.32c-0.37-0.3-0.86-0.44-1.46-0.44c-0.69,0-1.3,0.23-1.85,0.68
			c-0.55,0.45-0.9,1.02-1.08,1.69c-0.11,0.43-0.16,1.23-0.16,2.4v3.24h-1.14V-34.4z"/>
		<path class="st2" d="M307.38-30.99h1.14v1.58c0.45-0.61,0.96-1.06,1.51-1.36c0.55-0.3,1.15-0.45,1.8-0.45
			c0.66,0,1.25,0.17,1.76,0.5c0.51,0.33,0.89,0.79,1.13,1.36c0.24,0.57,0.37,1.45,0.37,2.66v4.55h-1.14v-4.21
			c0-1.02-0.04-1.7-0.13-2.04c-0.13-0.58-0.38-1.02-0.76-1.32c-0.37-0.3-0.86-0.44-1.46-0.44c-0.69,0-1.3,0.23-1.85,0.68
			c-0.55,0.45-0.9,1.02-1.08,1.69c-0.11,0.44-0.16,1.24-0.16,2.4v3.24h-1.14V-30.99z"/>
		<path class="st2" d="M321.37-31.21c1.36,0,2.49,0.49,3.39,1.48c0.81,0.9,1.22,1.96,1.22,3.19c0,1.23-0.43,2.31-1.29,3.24
			c-0.86,0.92-1.96,1.38-3.32,1.38c-1.35,0-2.46-0.46-3.32-1.38c-0.86-0.92-1.29-2-1.29-3.24c0-1.22,0.41-2.29,1.22-3.18
			C318.88-30.72,320.01-31.21,321.37-31.21z M321.37-30.1c-0.95,0-1.76,0.35-2.44,1.05c-0.68,0.7-1.02,1.54-1.02,2.53
			c0,0.64,0.15,1.23,0.46,1.79c0.31,0.55,0.73,0.98,1.26,1.28c0.53,0.3,1.1,0.45,1.73,0.45c0.63,0,1.21-0.15,1.74-0.45
			c0.53-0.3,0.95-0.73,1.25-1.28c0.31-0.55,0.46-1.15,0.46-1.79c0-0.99-0.34-1.84-1.02-2.53C323.12-29.75,322.31-30.1,321.37-30.1z"
			/>
		<path class="st2" d="M327.58-34.4h1.14v12.25h-1.14V-34.4z"/>
		<path class="st2" d="M334.93-31.21c1.36,0,2.49,0.49,3.39,1.48c0.81,0.9,1.22,1.96,1.22,3.19c0,1.23-0.43,2.31-1.29,3.24
			c-0.86,0.92-1.96,1.38-3.32,1.38c-1.35,0-2.46-0.46-3.32-1.38c-0.86-0.92-1.29-2-1.29-3.24c0-1.22,0.41-2.29,1.22-3.18
			C332.43-30.72,333.56-31.21,334.93-31.21z M334.92-30.1c-0.95,0-1.76,0.35-2.44,1.05c-0.68,0.7-1.02,1.54-1.02,2.53
			c0,0.64,0.15,1.23,0.46,1.79c0.31,0.55,0.73,0.98,1.26,1.28c0.53,0.3,1.1,0.45,1.73,0.45c0.63,0,1.21-0.15,1.74-0.45
			c0.53-0.3,0.95-0.73,1.25-1.28c0.31-0.55,0.46-1.15,0.46-1.79c0-0.99-0.34-1.84-1.02-2.53C336.67-29.75,335.86-30.1,334.92-30.1z"
			/>
		<path class="st2" d="M348.92-30.99h1.14v7.04c0,1.24-0.11,2.15-0.32,2.72c-0.3,0.81-0.81,1.44-1.55,1.88
			c-0.74,0.44-1.62,0.66-2.65,0.66c-0.76,0-1.44-0.11-2.04-0.32c-0.6-0.22-1.09-0.5-1.47-0.86c-0.38-0.36-0.73-0.89-1.05-1.58h1.23
			c0.33,0.58,0.77,1.02,1.3,1.3c0.53,0.28,1.19,0.42,1.98,0.42c0.78,0,1.43-0.14,1.96-0.43c0.53-0.29,0.91-0.65,1.14-1.09
			s0.34-1.14,0.34-2.12v-0.45c-0.43,0.54-0.95,0.96-1.57,1.25c-0.62,0.29-1.27,0.43-1.97,0.43c-0.81,0-1.58-0.2-2.29-0.6
			s-1.27-0.95-1.66-1.63c-0.39-0.68-0.58-1.43-0.58-2.25s0.2-1.58,0.61-2.29c0.41-0.71,0.97-1.26,1.69-1.68s1.48-0.62,2.27-0.62
			c0.66,0,1.28,0.14,1.85,0.41c0.57,0.27,1.12,0.72,1.66,1.35V-30.99z M345.57-30.12c-0.64,0-1.24,0.16-1.79,0.47
			c-0.55,0.31-0.99,0.74-1.3,1.29c-0.31,0.55-0.47,1.14-0.47,1.78c0,0.97,0.33,1.77,0.98,2.4c0.65,0.63,1.49,0.95,2.52,0.95
			c1.04,0,1.89-0.31,2.52-0.94c0.64-0.63,0.96-1.45,0.96-2.48c0-0.67-0.15-1.26-0.44-1.78c-0.29-0.52-0.71-0.94-1.24-1.24
			C346.76-29.97,346.18-30.12,345.57-30.12z"/>
		<path class="st2" d="M351.21-30.99h1.2l3.04,6.8l2.95-6.8h1.21l-5.27,12.07h-1.2l1.7-3.9L351.21-30.99z"/>
		<path class="st2" d="M365.27-34.1h2.38c1.33,0,2.23,0.05,2.7,0.16c0.71,0.16,1.29,0.51,1.73,1.04c0.44,0.53,0.67,1.19,0.67,1.97
			c0,0.65-0.15,1.22-0.46,1.72c-0.31,0.49-0.74,0.87-1.31,1.12c-0.57,0.25-1.35,0.38-2.35,0.39l4.3,5.55h-1.48l-4.3-5.55h-0.68v5.55
			h-1.19V-34.1z M366.46-32.93v4.06l2.06,0.02c0.8,0,1.39-0.08,1.77-0.23c0.38-0.15,0.68-0.39,0.89-0.73
			c0.21-0.33,0.32-0.71,0.32-1.12c0-0.4-0.11-0.77-0.33-1.09c-0.22-0.33-0.5-0.56-0.85-0.7c-0.35-0.14-0.94-0.21-1.75-0.21H366.46z"
			/>
		<path class="st2" d="M382.22-25.08l0.96,0.5c-0.32,0.62-0.68,1.12-1.09,1.49c-0.41,0.38-0.87,0.67-1.39,0.86
			c-0.52,0.2-1.1,0.3-1.75,0.3c-1.44,0-2.57-0.47-3.38-1.42c-0.81-0.95-1.22-2.01-1.22-3.2c0-1.12,0.34-2.12,1.03-3
			c0.87-1.12,2.04-1.67,3.5-1.67c1.51,0,2.71,0.57,3.61,1.71c0.64,0.81,0.96,1.81,0.97,3.02h-7.95c0.02,1.03,0.35,1.87,0.98,2.52
			c0.64,0.66,1.42,0.98,2.35,0.98c0.45,0,0.89-0.08,1.31-0.23c0.43-0.16,0.79-0.36,1.09-0.62C381.55-24.09,381.87-24.5,382.22-25.08
			z M382.22-27.46c-0.15-0.61-0.37-1.09-0.66-1.45c-0.29-0.36-0.67-0.65-1.15-0.88c-0.48-0.22-0.98-0.33-1.5-0.33
			c-0.87,0-1.61,0.28-2.24,0.84c-0.45,0.41-0.8,1.01-1.03,1.83H382.22z"/>
		<path class="st2" d="M389.7-30.02l-0.73,0.76c-0.61-0.59-1.2-0.88-1.79-0.88c-0.37,0-0.68,0.12-0.95,0.36
			c-0.26,0.24-0.39,0.53-0.39,0.85c0,0.29,0.11,0.56,0.33,0.82c0.22,0.27,0.67,0.58,1.37,0.93c0.85,0.44,1.42,0.86,1.73,1.27
			c0.3,0.41,0.45,0.87,0.45,1.39c0,0.73-0.26,1.34-0.76,1.84c-0.51,0.5-1.15,0.76-1.91,0.76c-0.51,0-1-0.11-1.46-0.33
			c-0.46-0.22-0.85-0.53-1.15-0.92l0.71-0.81c0.58,0.66,1.2,0.98,1.85,0.98c0.46,0,0.84-0.15,1.16-0.44
			c0.32-0.29,0.48-0.64,0.48-1.03c0-0.33-0.11-0.61-0.32-0.87c-0.21-0.25-0.69-0.56-1.43-0.94c-0.8-0.41-1.34-0.82-1.63-1.22
			c-0.29-0.4-0.43-0.86-0.43-1.37c0-0.67,0.23-1.23,0.69-1.67c0.46-0.44,1.04-0.67,1.74-0.67C388.05-31.21,388.87-30.82,389.7-30.02
			z"/>
		<path class="st2" d="M398.82-25.08l0.96,0.5c-0.32,0.62-0.68,1.12-1.09,1.49c-0.41,0.38-0.87,0.67-1.39,0.86
			c-0.52,0.2-1.1,0.3-1.75,0.3c-1.44,0-2.57-0.47-3.38-1.42c-0.81-0.95-1.22-2.01-1.22-3.2c0-1.12,0.34-2.12,1.03-3
			c0.87-1.12,2.04-1.67,3.5-1.67c1.51,0,2.71,0.57,3.61,1.71c0.64,0.81,0.96,1.81,0.97,3.02h-7.95c0.02,1.03,0.35,1.87,0.98,2.52
			c0.64,0.66,1.42,0.98,2.35,0.98c0.45,0,0.89-0.08,1.31-0.23c0.43-0.16,0.79-0.36,1.09-0.62C398.15-24.09,398.47-24.5,398.82-25.08
			z M398.82-27.46c-0.15-0.61-0.37-1.09-0.66-1.45c-0.29-0.36-0.67-0.65-1.15-0.88c-0.48-0.22-0.98-0.33-1.5-0.33
			c-0.87,0-1.61,0.28-2.24,0.84c-0.45,0.41-0.8,1.01-1.03,1.83H398.82z"/>
		<path class="st2" d="M410.66-30.99v8.84h-1.12v-1.52c-0.47,0.58-1.01,1.01-1.6,1.31c-0.59,0.29-1.24,0.44-1.94,0.44
			c-1.25,0-2.32-0.45-3.2-1.36c-0.89-0.91-1.33-2.01-1.33-3.31c0-1.27,0.45-2.36,1.34-3.26c0.89-0.9,1.97-1.36,3.22-1.36
			c0.72,0,1.38,0.15,1.97,0.46c0.59,0.31,1.1,0.77,1.55,1.39v-1.63H410.66z M406.12-30.12c-0.63,0-1.22,0.16-1.75,0.47
			c-0.53,0.31-0.96,0.75-1.28,1.31c-0.32,0.56-0.47,1.16-0.47,1.78c0,0.62,0.16,1.22,0.48,1.78c0.32,0.57,0.75,1.01,1.29,1.33
			c0.54,0.32,1.12,0.47,1.73,0.47c0.62,0,1.21-0.16,1.77-0.47c0.56-0.31,0.99-0.74,1.29-1.27c0.3-0.54,0.45-1.14,0.45-1.81
			c0-1.02-0.33-1.88-1.01-2.56C407.93-29.77,407.1-30.12,406.12-30.12z"/>
		<path class="st2" d="M412.45-30.99h1.16v1.29c0.35-0.51,0.71-0.89,1.1-1.14c0.38-0.25,0.78-0.38,1.2-0.38
			c0.32,0,0.65,0.1,1.01,0.3l-0.59,0.96c-0.24-0.1-0.44-0.15-0.6-0.15c-0.38,0-0.74,0.16-1.1,0.47c-0.35,0.31-0.62,0.79-0.8,1.45
			c-0.14,0.5-0.21,1.52-0.21,3.05v2.99h-1.16V-30.99z"/>
		<path class="st2" d="M426.13-29.15l-0.9,0.56c-0.78-1.03-1.84-1.55-3.19-1.55c-1.08,0-1.97,0.35-2.68,1.04
			c-0.71,0.69-1.06,1.53-1.06,2.52c0,0.64,0.16,1.25,0.49,1.82c0.33,0.57,0.78,1.01,1.35,1.32c0.57,0.31,1.21,0.47,1.92,0.47
			c1.3,0,2.36-0.52,3.18-1.55l0.9,0.59c-0.42,0.64-0.99,1.13-1.7,1.48s-1.52,0.53-2.43,0.53c-1.4,0-2.55-0.44-3.47-1.33
			c-0.92-0.89-1.38-1.97-1.38-3.24c0-0.85,0.22-1.65,0.65-2.38c0.43-0.73,1.02-1.31,1.77-1.72c0.75-0.41,1.59-0.62,2.52-0.62
			c0.58,0,1.15,0.09,1.69,0.27c0.55,0.18,1,0.41,1.39,0.7C425.54-29.96,425.87-29.59,426.13-29.15z"/>
		<path class="st2" d="M427.98-34.4h1.14v4.99c0.46-0.61,0.97-1.06,1.52-1.36c0.55-0.3,1.15-0.45,1.79-0.45
			c0.66,0,1.25,0.17,1.76,0.5c0.51,0.33,0.89,0.79,1.13,1.35c0.24,0.57,0.37,1.45,0.37,2.66v4.55h-1.14v-4.21
			c0-1.02-0.04-1.7-0.12-2.04c-0.14-0.58-0.4-1.02-0.77-1.32c-0.37-0.3-0.86-0.44-1.46-0.44c-0.69,0-1.3,0.23-1.85,0.68
			c-0.55,0.45-0.9,1.02-1.08,1.69c-0.11,0.43-0.16,1.23-0.16,2.4v3.24h-1.14V-34.4z"/>
		<path class="st2" d="M442.08-34.1h1.19v11.95h-1.19V-34.1z"/>
		<path class="st2" d="M445.49-30.99h1.14v1.58c0.45-0.61,0.96-1.06,1.51-1.36c0.55-0.3,1.15-0.45,1.8-0.45
			c0.66,0,1.25,0.17,1.76,0.5c0.51,0.33,0.89,0.79,1.13,1.36c0.24,0.57,0.37,1.45,0.37,2.66v4.55h-1.14v-4.21
			c0-1.02-0.04-1.7-0.13-2.04c-0.13-0.58-0.38-1.02-0.76-1.32c-0.37-0.3-0.86-0.44-1.46-0.44c-0.69,0-1.3,0.23-1.85,0.68
			c-0.55,0.45-0.9,1.02-1.08,1.69c-0.11,0.44-0.16,1.24-0.16,2.4v3.24h-1.14V-30.99z"/>
		<path class="st2" d="M459.74-30.02l-0.73,0.76c-0.61-0.59-1.2-0.88-1.79-0.88c-0.37,0-0.68,0.12-0.95,0.36
			c-0.26,0.24-0.39,0.53-0.39,0.85c0,0.29,0.11,0.56,0.33,0.82c0.22,0.27,0.67,0.58,1.37,0.93c0.85,0.44,1.42,0.86,1.73,1.27
			c0.3,0.41,0.45,0.87,0.45,1.39c0,0.73-0.26,1.34-0.76,1.84c-0.51,0.5-1.15,0.76-1.91,0.76c-0.51,0-1-0.11-1.46-0.33
			c-0.46-0.22-0.85-0.53-1.15-0.92l0.71-0.81c0.58,0.66,1.2,0.98,1.85,0.98c0.46,0,0.84-0.15,1.16-0.44s0.48-0.64,0.48-1.03
			c0-0.33-0.11-0.61-0.32-0.87c-0.21-0.25-0.69-0.56-1.43-0.94c-0.8-0.41-1.34-0.82-1.63-1.22c-0.29-0.4-0.43-0.86-0.43-1.37
			c0-0.67,0.23-1.23,0.69-1.67c0.46-0.44,1.04-0.67,1.74-0.67C458.1-31.21,458.92-30.82,459.74-30.02z"/>
		<path class="st2" d="M462.41-34.27h1.14v3.28h1.8V-30h-1.8v7.85h-1.14V-30h-1.55v-0.98h1.55V-34.27z"/>
		<path class="st2" d="M467.12-34.62c0.26,0,0.48,0.09,0.66,0.28c0.18,0.18,0.27,0.41,0.27,0.67c0,0.25-0.09,0.47-0.27,0.66
			c-0.18,0.18-0.41,0.28-0.66,0.28c-0.25,0-0.47-0.09-0.66-0.28c-0.18-0.18-0.28-0.4-0.28-0.66c0-0.26,0.09-0.48,0.28-0.67
			C466.65-34.53,466.87-34.62,467.12-34.62z M466.55-30.99h1.14v8.84h-1.14V-30.99z"/>
		<path class="st2" d="M470.71-34.27h1.14v3.28h1.8V-30h-1.8v7.85h-1.14V-30h-1.55v-0.98h1.55V-34.27z"/>
		<path class="st2" d="M474.88-30.99h1.14v4.13c0,1.01,0.05,1.7,0.16,2.08c0.16,0.54,0.47,0.97,0.93,1.28
			c0.46,0.32,1,0.47,1.64,0.47c0.63,0,1.17-0.15,1.62-0.46c0.44-0.31,0.75-0.71,0.91-1.21c0.11-0.34,0.17-1.06,0.17-2.17v-4.13h1.16
			v4.34c0,1.22-0.14,2.14-0.43,2.75s-0.71,1.1-1.28,1.45c-0.57,0.35-1.29,0.52-2.15,0.52c-0.86,0-1.58-0.17-2.15-0.52
			c-0.58-0.35-1.01-0.84-1.29-1.46c-0.28-0.62-0.43-1.57-0.43-2.82V-30.99z"/>
		<path class="st2" d="M485.79-34.27h1.14v3.28h1.8V-30h-1.8v7.85h-1.14V-30h-1.55v-0.98h1.55V-34.27z"/>
		<path class="st2" d="M497.55-25.08l0.96,0.5c-0.32,0.62-0.68,1.12-1.09,1.49c-0.41,0.38-0.87,0.67-1.39,0.86
			c-0.52,0.2-1.1,0.3-1.75,0.3c-1.44,0-2.57-0.47-3.38-1.42c-0.81-0.95-1.22-2.01-1.22-3.2c0-1.12,0.34-2.12,1.03-3
			c0.87-1.12,2.04-1.67,3.5-1.67c1.51,0,2.71,0.57,3.61,1.71c0.64,0.81,0.96,1.81,0.97,3.02h-7.95c0.02,1.03,0.35,1.87,0.98,2.52
			c0.64,0.66,1.42,0.98,2.35,0.98c0.45,0,0.89-0.08,1.31-0.23c0.43-0.16,0.79-0.36,1.09-0.62C496.88-24.09,497.2-24.5,497.55-25.08z
			 M497.55-27.46c-0.15-0.61-0.37-1.09-0.66-1.45c-0.29-0.36-0.67-0.65-1.15-0.88c-0.48-0.22-0.98-0.33-1.5-0.33
			c-0.87,0-1.61,0.28-2.24,0.84c-0.45,0.41-0.8,1.01-1.03,1.83H497.55z"/>
	</g>
	<g class="st1">
		<path class="st2" d="M68.25-47.45c-1.23-1.95-2.55-4.37-3.97-7.27c-1.43-2.9-2.14-6.38-2.14-10.45c0-4.05,0.71-7.52,2.14-10.44
			c1.42-2.91,2.75-5.33,3.97-7.26h3.61c-1.83,3.34-3.14,6.46-3.94,9.38c-0.8,2.91-1.2,5.68-1.2,8.32c0,2.66,0.4,5.44,1.2,8.35
			c0.8,2.91,2.11,6.04,3.94,9.38H68.25z"/>
		<path class="st2" d="M91.31-54.79c-1.27-0.76-2.65-1.83-4.13-3.23c-1.48-1.4-2.65-2.98-3.51-4.73c-0.7,1.75-1.79,3.4-3.3,4.94
			c-1.5,1.53-2.85,2.66-4.03,3.36l-3.44-3.18c1.78-1,3.6-2.64,5.45-4.92c1.85-2.28,2.78-5.4,2.78-9.38v-7.6h4.93v7.6
			c0,3.97,0.95,7.02,2.85,9.16c1.9,2.13,3.62,3.65,5.17,4.55L91.31-54.79z M100.62-64v14.91h-4.65v-32.16h4.65v12.65h4.34V-64
			H100.62z"/>
		<path class="st2" d="M110.06-56.8c0.76-2.85,1.14-5.64,1.14-8.37c0-2.71-0.38-5.48-1.14-8.33c-0.76-2.85-2.06-5.9-3.89-9.14h3.16
			c1.23,1.92,2.54,4.32,3.92,7.2c1.39,2.88,2.08,6.3,2.08,10.27c0,4-0.7,7.43-2.08,10.29c-1.39,2.86-2.7,5.27-3.92,7.22h-3.16
			C108-50.91,109.3-53.95,110.06-56.8z"/>
		<path class="st2" d="M118.95-72.56v-3.8h19.31v3.8H118.95z M134.92-61.85c-1.64,1.07-3.76,1.61-6.35,1.61
			c-2.43,0-4.51-0.54-6.23-1.61c-1.73-1.07-2.59-2.4-2.59-3.98c0-1.66,0.86-3.01,2.59-4.08c1.72-1.06,3.81-1.59,6.27-1.59
			c2.59,0,4.71,0.54,6.34,1.61c1.63,1.07,2.45,2.44,2.45,4.09C137.39-64.23,136.57-62.92,134.92-61.85z M123.15-49.82v-8.88h5v4.86
			h17.99v4.02H123.15z M123.36-77.89v-3.66h10.38v3.66H123.36z M131.4-67.35c-0.8-0.33-1.71-0.49-2.73-0.49
			c-1.06,0-2.02,0.16-2.86,0.49c-0.85,0.33-1.27,0.82-1.27,1.48c0,0.68,0.42,1.18,1.27,1.48c0.84,0.31,1.8,0.46,2.86,0.46
			c1.02,0,1.93-0.15,2.73-0.46c0.8-0.3,1.2-0.78,1.2-1.44C132.6-66.51,132.2-67.02,131.4-67.35z M145.2-67.37v9.69h-4.65v-23.58
			h4.65v9.5h4.06v4.39H145.2z"/>
		<path class="st2" d="M167.15-65.03v4.72h9.79v11.22h-4.72v-7.02h-18.78v-4.2h8.78v-4.72H150.1v-4.2h21.21
			c0.21-0.95,0.43-2.07,0.66-3.36c0.23-1.29,0.39-2.46,0.49-3.51h-19.17v-4.2h24.34c0,2.02-0.25,4.2-0.75,6.54
			c-0.5,2.34-0.84,3.85-1.02,4.53h4.79v4.2H167.15z"/>
		<path class="st2" d="M195.74-66.98c-2.88,2.99-6.42,5-10.61,6.05l-2.74-3.33c3.73-0.76,6.69-2.31,8.89-4.66
			c2.2-2.35,3.3-4.46,3.3-6.34h-9.9v-4.17h15.38C200.07-74.12,198.62-69.97,195.74-66.98z M188.15-49.82v-10.09h4.72v5.88h18.4v4.2
			H188.15z M205.97-58.01v-9.65h-6.01v-4.2h6.01v-9.39h4.62v23.25H205.97z"/>
		<path class="st2" d="M231.7-60.79v2.81h9.27v8.88h-4.69v-4.82h-19.06v-4.06h9.62v-2.81h-12.85v-4.02h30.55v4.02H231.7z
			 M240.31-66.01c-0.51-0.05-1.95-0.29-4.32-0.73c-2.37-0.44-4.61-1.51-6.72-3.22c-1.23,1.41-3.24,2.41-6.04,3
			c-2.8,0.58-4.47,0.9-5,0.95l-2.5-3.58c0.81-0.07,2.43-0.35,4.86-0.82c2.43-0.48,4.12-1.27,5.07-2.39h-8.54v-3.73h24.31v3.73h-8.54
			c1.16,1.12,2.9,1.92,5.24,2.39c2.34,0.47,3.9,0.75,4.69,0.82L240.31-66.01z M222.6-78.22v-3.69h13.27v3.69H222.6z"/>
		<path class="st2" d="M263.64-64.92v1.79h9.27v8.48h-18.09v1.46h18.78v3.73h-24.1v-8.52h18.09v-1.46h-18.09v-3.69h9.27v-1.79
			h-12.85v-3.8h30.55v3.8H263.64z M249.51-70.36v-10.09h23.41v10.09H249.51z M268.3-76.61h-14.17v2.41h14.17V-76.61z"/>
		<path class="st2" d="M278.23-69.3v-4.06h15.94v4.06H278.23z M291.54-55.69c-1.43,1.23-3.2,1.85-5.33,1.85
			c-1.9,0-3.61-0.6-5.14-1.81c-1.53-1.21-2.29-2.91-2.29-5.1c0-2.1,0.76-3.76,2.27-4.99c1.52-1.23,3.23-1.85,5.16-1.85
			c2.11,0,3.88,0.62,5.31,1.87c1.43,1.24,2.15,2.9,2.15,4.97C293.68-58.61,292.97-56.92,291.54-55.69z M281.73-75.33v-3.91h8.82
			v3.91H281.73z M284.1-58.48c0.6,0.49,1.31,0.73,2.12,0.73c0.88,0,1.6-0.25,2.17-0.75c0.56-0.5,0.85-1.24,0.85-2.21
			c0-0.95-0.28-1.68-0.83-2.19c-0.56-0.51-1.29-0.77-2.19-0.77c-0.83,0-1.54,0.26-2.13,0.77c-0.59,0.51-0.89,1.26-0.89,2.23
			C283.19-59.7,283.49-58.97,284.1-58.48z M302.61-49.09v-15.1h-2.47v13.63h-4.45v-29.97h4.45v11.15h2.47v-11.88h4.44v32.16H302.61z
			"/>
		<path class="st2" d="M323.82-54.57c-0.95-0.56-1.91-1.33-2.88-2.3c-0.97-0.97-1.77-2.07-2.4-3.29c-0.44,1.17-1.22,2.27-2.34,3.31
			c-1.12,1.04-2.26,1.88-3.42,2.54l-3.26-3.22c1.76-0.8,3.28-2.07,4.56-3.8c1.29-1.73,1.93-3.86,1.93-6.4v-0.91h-5.04v-4.31h15v4.31
			h-4.93v0.91c0,2.51,0.58,4.53,1.75,6.07c1.17,1.53,2.46,2.73,3.87,3.58L323.82-54.57z M314.2-75.26v-4.13h8.61v4.13H314.2z
			 M328.19-50.55v-12.21h-3.68v-4.42h3.68v-13.34h4.48v29.97H328.19z M334.79-49.09v-32.16h4.48v32.16H334.79z"/>
		<path class="st2" d="M356.13-63.07c-2.81,3.79-6.1,6.7-9.88,8.72l-3.61-2.85c3.57-1.53,6.48-3.95,8.74-7.25
			c2.26-3.3,3.38-6.35,3.38-9.16h-10.14v-4.17h15.73C360.35-71.76,358.94-66.86,356.13-63.07z M365.56-49.09v-32.16h4.65v32.16
			H365.56z"/>
		<path class="st2" d="M391.57-64.92v2.01h8.99v8.26h-17.95v1.54h18.68v3.66h-23.85v-8.37h17.92v-1.5h-17.92v-3.58h8.99v-2.01
			h-12.71v-3.91h30.55v3.91H391.57z M399.9-69.89c-1.6-0.17-3.62-0.82-6.06-1.96c-2.44-1.13-4.01-2.32-4.71-3.56
			c-0.88,1.19-2.46,2.34-4.74,3.45s-4.39,1.79-6.34,2.03l-2.61-3.33c2.22-0.37,4.62-1.2,7.19-2.5c2.57-1.3,3.86-2.84,3.86-4.62v-1.1
			h5.24v1.1c0,1.78,1.2,3.3,3.59,4.55c2.4,1.26,4.79,2.11,7.17,2.58L399.9-69.89z"/>
		<path class="st2" d="M429.38-58.05v-8.48h-6.5c-0.79,1-1.79,1.81-3.02,2.43c-1.23,0.62-2.59,0.93-4.1,0.93
			c-2.59,0-4.73-0.86-6.41-2.59c-1.68-1.73-2.52-3.78-2.52-6.14c0-2.36,0.84-4.41,2.52-6.14s3.82-2.6,6.41-2.6
			c1.37,0,2.61,0.26,3.75,0.77c1.13,0.51,2.1,1.19,2.88,2.05h6.98v-3.44h4.69v23.21H429.38z M411.43-49.82v-10.71h4.72v6.51h18.61
			v4.2H411.43z M412.68-75.1c-0.74,0.91-1.11,1.98-1.11,3.2c0,1.19,0.37,2.25,1.11,3.18c0.74,0.93,1.77,1.39,3.09,1.39
			c1.37,0,2.41-0.46,3.14-1.39c0.73-0.93,1.09-1.99,1.09-3.18c0-1.22-0.36-2.29-1.09-3.2c-0.73-0.91-1.78-1.37-3.14-1.37
			C414.45-76.47,413.42-76.01,412.68-75.1z M429.38-73.62h-4.83c0.05,0.27,0.09,0.55,0.12,0.84c0.04,0.29,0.05,0.58,0.05,0.88
			c0,0.19-0.01,0.39-0.02,0.58c-0.01,0.19-0.04,0.39-0.09,0.58h4.76V-73.62z"/>
		<path class="st2" d="M454.52-62.32v13.23h-4.79v-13.23h-12.12v-4.2h20.8c0.23-1.02,0.51-2.43,0.82-4.22
			c0.31-1.79,0.5-3.39,0.57-4.81H440.8v-4.2H465c0,2.8-0.28,5.55-0.83,8.24c-0.56,2.69-0.89,4.36-1.01,4.99h5v4.2H454.52z"/>
		<path class="st2" d="M487.02-64.64c-2.29,0.16-4.01,0.25-5.14,0.27v4.64h-4.72v-4.61h-6.56v-4.17h10.24
			c1.57,0,3.68-0.11,6.32-0.33c2.64-0.22,4.41-0.41,5.31-0.58v4.17C491.13-65,489.31-64.8,487.02-64.64z M487.32-80.1
			c1.35,1.23,2.03,2.64,2.03,4.22c0,1.63-0.7,3.05-2.08,4.26c-1.39,1.21-3.43,1.81-6.11,1.81c-2.69,0-4.72-0.61-6.11-1.83
			c-1.39-1.22-2.08-2.63-2.08-4.24c0-1.58,0.7-2.99,2.1-4.22c1.4-1.23,3.43-1.85,6.1-1.85C483.91-81.95,485.96-81.33,487.32-80.1z
			 M475.53-49.82v-8.63h4.72v4.42H499v4.2H475.53z M484.05-77.49c-0.57-0.58-1.53-0.88-2.9-0.88c-1.32,0-2.26,0.29-2.83,0.88
			c-0.57,0.58-0.85,1.12-0.85,1.61c0,0.46,0.3,0.98,0.9,1.53c0.6,0.56,1.54,0.84,2.81,0.84c1.34,0,2.3-0.28,2.86-0.84
			c0.57-0.56,0.85-1.07,0.85-1.53C484.9-76.37,484.62-76.91,484.05-77.49z M493.69-57.06v-2.37h-6.91v-3.84h6.91v-17.98h4.62v24.2
			H493.69z"/>
	</g>
	<g class="st1">
		<g>
			<path class="st2" d="M37.29-86.54H0v64.39h37.29c11.46,0,20.74-14.41,20.74-32.2S48.75-86.54,37.29-86.54z M38.22-30.91H5.86
				v-16.5h32.36c2.94,0,5.32,3.69,5.32,8.25C43.53-34.6,41.15-30.91,38.22-30.91z M38.22-62.03H5.86v-16.5h32.36
				c2.94,0,5.32,3.69,5.32,8.25C43.53-65.72,41.15-62.03,38.22-62.03z"/>
		</g>
	</g>
	<g class="st1">
		<g>
			<g>
				<path class="st3" d="M26.67-62.03h3.68c3.64,0,5.21,2.73,5.21,7.09c0,4.48-1.7,7.53-5.45,7.53h-3.44V-62.03z M33.26-54.78
					c0-3.63-1.01-4.75-3.1-4.75H28.9v9.61H30C32.42-49.91,33.26-51.75,33.26-54.78z"/>
			</g>
			<g>
				<path class="st3" d="M16.31-62.03h5.29c3.15,0,4.04,1.58,4.04,3.57c0,1.96-1.18,3.01-2.53,3.41V-55c2.12,0.28,3.1,1.55,3.1,3.57
					c0,2.99-2.14,4.02-5.04,4.02h-4.87V-62.03z M22.86-57.95c0-1.58-0.96-1.68-2.23-1.68h-1.48v3.63h1.05
					C21.53-55.99,22.86-56.25,22.86-57.95z M23.19-51.71c0-1.64-1.03-1.92-2.31-1.92h-1.73v3.82h1.46
					C22.15-49.81,23.19-50.12,23.19-51.71z"/>
			</g>
			<g>
				<path class="st3" d="M50.65-47.41l-2.41-5.55h-1.67v5.55h-2.58v-14.62h4.76c3.04,0,4.05,1.96,4.05,4.12
					c0,2.16-0.86,3.49-2.11,4.18l2.77,6.32H50.65z M50.11-57.61c0-1.39-0.73-1.92-2.11-1.92h-1.44v4.12h1.33
					C49.11-55.41,50.11-55.95,50.11-57.61z"/>
			</g>
			<g>
				<path class="st3" d="M54.06-47.41v-14.62h3.07v14.62H54.06z"/>
			</g>
			<g>
				<polygon class="st3" points="34.85,-62.03 34.85,-59.4 37.68,-59.4 37.68,-47.41 40.77,-47.41 40.77,-59.4 43.56,-59.4 
					43.56,-62.03 				"/>
			</g>
		</g>
		<polygon class="st3" points="15.09,-48.32 15.09,-48.32 9.77,-53.3 9.77,-53.3 8.59,-54.4 8.59,-54.72 10.07,-56.31 10.07,-56.3 
			15.4,-62.03 12.39,-62.03 10.07,-59.57 10.07,-59.56 8.59,-57.98 8.59,-58.78 8.59,-62.03 6.05,-62.03 6.05,-57.93 6.05,-55.55 
			6.05,-53.32 6.05,-51.06 6.05,-47.41 8.59,-47.41 8.59,-50.41 8.59,-51.36 10.42,-49.66 10.42,-49.64 12.83,-47.41 16.06,-47.41 
					"/>
	</g>
</g>
<g id="Layer_2">
	<g>
		<path class="st2" d="M91.02,56.61h1.14v4.19l4.46-4.19h1.5l-5.36,5.01l5.78,6.15h-1.49l-4.89-5.2v5.2h-1.14V56.61z"/>
		<path class="st2" d="M103.61,59.3c1.27,0,2.32,0.46,3.16,1.38c0.76,0.84,1.14,1.83,1.14,2.98c0,1.15-0.4,2.16-1.2,3.02
			c-0.8,0.86-1.83,1.29-3.1,1.29c-1.26,0-2.3-0.43-3.1-1.29c-0.8-0.86-1.2-1.87-1.2-3.02c0-1.14,0.38-2.13,1.14-2.97
			C101.28,59.77,102.34,59.3,103.61,59.3z M103.61,60.34c-0.88,0-1.64,0.33-2.27,0.98c-0.64,0.65-0.95,1.44-0.95,2.37
			c0,0.6,0.14,1.15,0.43,1.67c0.29,0.52,0.68,0.91,1.17,1.19c0.49,0.28,1.03,0.42,1.62,0.42s1.13-0.14,1.62-0.42
			c0.49-0.28,0.88-0.68,1.17-1.19c0.29-0.52,0.43-1.07,0.43-1.67c0-0.93-0.32-1.71-0.95-2.37
			C105.25,60.67,104.49,60.34,103.61,60.34z"/>
		<path class="st2" d="M109.17,59.52h1.08v1.21c0.32-0.48,0.66-0.83,1.02-1.07c0.36-0.23,0.73-0.35,1.12-0.35
			c0.29,0,0.61,0.09,0.94,0.28l-0.55,0.89c-0.22-0.1-0.41-0.14-0.56-0.14c-0.35,0-0.69,0.15-1.02,0.44
			c-0.33,0.29-0.58,0.74-0.75,1.35c-0.13,0.47-0.2,1.42-0.2,2.85v2.79h-1.08V59.52z"/>
		<path class="st2" d="M120.88,65.03l0.89,0.47c-0.29,0.58-0.63,1.04-1.02,1.4c-0.38,0.35-0.82,0.62-1.3,0.81
			c-0.48,0.19-1.03,0.28-1.63,0.28c-1.35,0-2.4-0.44-3.16-1.32c-0.76-0.88-1.14-1.88-1.14-2.99c0-1.05,0.32-1.98,0.96-2.8
			c0.82-1.04,1.91-1.56,3.27-1.56c1.41,0,2.53,0.53,3.37,1.6c0.6,0.75,0.9,1.69,0.91,2.82h-7.42c0.02,0.96,0.33,1.74,0.92,2.36
			c0.59,0.61,1.32,0.92,2.2,0.92c0.42,0,0.83-0.07,1.22-0.22c0.4-0.15,0.74-0.34,1.02-0.58S120.55,65.57,120.88,65.03z
			 M120.88,62.81c-0.14-0.57-0.35-1.02-0.62-1.36c-0.27-0.34-0.63-0.61-1.07-0.82c-0.45-0.21-0.91-0.31-1.41-0.31
			c-0.81,0-1.51,0.26-2.09,0.78c-0.42,0.38-0.74,0.95-0.96,1.71H120.88z"/>
		<path class="st2" d="M131.93,59.52v8.25h-1.05v-1.42c-0.44,0.54-0.94,0.95-1.5,1.22c-0.55,0.27-1.16,0.41-1.82,0.41
			c-1.17,0-2.16-0.42-2.99-1.27c-0.83-0.85-1.24-1.88-1.24-3.09c0-1.19,0.42-2.2,1.25-3.05c0.84-0.84,1.84-1.27,3.01-1.27
			c0.68,0,1.29,0.14,1.84,0.43c0.55,0.29,1.03,0.72,1.44,1.3v-1.52H131.93z M127.69,60.33c-0.59,0-1.14,0.15-1.64,0.44
			c-0.5,0.29-0.9,0.7-1.19,1.22c-0.29,0.52-0.44,1.08-0.44,1.67c0,0.58,0.15,1.14,0.45,1.67c0.3,0.53,0.7,0.94,1.2,1.24
			c0.5,0.3,1.04,0.44,1.62,0.44c0.58,0,1.13-0.15,1.65-0.44c0.52-0.29,0.92-0.69,1.2-1.19c0.28-0.5,0.42-1.06,0.42-1.69
			c0-0.95-0.31-1.75-0.94-2.39C129.38,60.65,128.61,60.33,127.69,60.33z"/>
		<path class="st2" d="M138.2,56.61h2.2c0.89,0,1.56,0.1,2.04,0.31c0.47,0.21,0.85,0.53,1.12,0.97c0.28,0.43,0.41,0.92,0.41,1.45
			c0,0.5-0.12,0.95-0.36,1.35c-0.24,0.41-0.6,0.74-1.07,0.99c0.58,0.2,1.03,0.43,1.34,0.69s0.56,0.59,0.73,0.96
			c0.17,0.38,0.26,0.78,0.26,1.22c0,0.89-0.33,1.65-0.98,2.27c-0.65,0.62-1.53,0.93-2.64,0.93h-3.06V56.61z M139.3,57.7v3.57h0.64
			c0.78,0,1.35-0.07,1.71-0.22c0.37-0.14,0.65-0.37,0.87-0.68c0.21-0.31,0.32-0.66,0.32-1.04c0-0.51-0.18-0.91-0.54-1.2
			c-0.36-0.29-0.93-0.44-1.7-0.44H139.3z M139.3,62.4v4.28h1.38c0.82,0,1.41-0.08,1.79-0.24c0.38-0.16,0.69-0.41,0.92-0.75
			c0.23-0.34,0.34-0.71,0.34-1.1c0-0.5-0.16-0.93-0.49-1.3c-0.33-0.37-0.77-0.62-1.34-0.76c-0.38-0.09-1.04-0.14-1.99-0.14H139.3z"
			/>
		<path class="st2" d="M146.47,59.52h1.06v3.85c0,0.94,0.05,1.59,0.15,1.94c0.15,0.51,0.44,0.91,0.87,1.2
			c0.43,0.29,0.94,0.44,1.53,0.44c0.59,0,1.09-0.14,1.51-0.43c0.41-0.29,0.7-0.66,0.85-1.13c0.11-0.32,0.16-0.99,0.16-2.02v-3.85
			h1.08v4.05c0,1.14-0.13,1.99-0.4,2.57c-0.27,0.58-0.67,1.03-1.2,1.35c-0.53,0.33-1.2,0.49-2.01,0.49c-0.8,0-1.47-0.16-2.01-0.49
			c-0.54-0.33-0.94-0.78-1.21-1.37c-0.27-0.58-0.4-1.46-0.4-2.64V59.52z"/>
		<path class="st2" d="M156.11,56.12c0.24,0,0.45,0.09,0.62,0.26c0.17,0.17,0.25,0.38,0.25,0.62c0,0.24-0.08,0.44-0.25,0.61
			c-0.17,0.17-0.38,0.26-0.62,0.26c-0.24,0-0.44-0.09-0.61-0.26c-0.17-0.17-0.26-0.38-0.26-0.61c0-0.24,0.09-0.45,0.26-0.62
			C155.67,56.21,155.87,56.12,156.11,56.12z M155.58,59.52h1.06v8.25h-1.06V59.52z"/>
		<path class="st2" d="M158.38,56.33h1.06v11.44h-1.06V56.33z"/>
		<path class="st2" d="M169.57,56.33v11.44h-1.05v-1.42c-0.45,0.54-0.94,0.95-1.5,1.22c-0.55,0.27-1.16,0.41-1.82,0.41
			c-1.17,0-2.17-0.42-2.99-1.27c-0.83-0.85-1.24-1.88-1.24-3.09c0-1.19,0.42-2.2,1.25-3.05c0.83-0.84,1.84-1.27,3.01-1.27
			c0.68,0,1.29,0.14,1.84,0.43c0.55,0.29,1.03,0.72,1.44,1.3v-4.7H169.57z M165.33,60.33c-0.59,0-1.13,0.15-1.64,0.44
			c-0.5,0.29-0.9,0.7-1.19,1.22c-0.29,0.52-0.44,1.08-0.44,1.67c0,0.58,0.15,1.14,0.45,1.67c0.3,0.53,0.7,0.94,1.2,1.24
			c0.5,0.3,1.04,0.44,1.62,0.44c0.58,0,1.13-0.15,1.65-0.44c0.52-0.29,0.92-0.69,1.2-1.19c0.28-0.5,0.42-1.06,0.42-1.69
			c0-0.95-0.32-1.75-0.94-2.39S166.25,60.33,165.33,60.33z"/>
		<path class="st2" d="M172.03,56.12c0.24,0,0.45,0.09,0.62,0.26c0.17,0.17,0.25,0.38,0.25,0.62c0,0.24-0.08,0.44-0.25,0.61
			c-0.17,0.17-0.38,0.26-0.62,0.26c-0.24,0-0.44-0.09-0.61-0.26c-0.17-0.17-0.26-0.38-0.26-0.61c0-0.24,0.09-0.45,0.26-0.62
			C171.59,56.21,171.8,56.12,172.03,56.12z M171.51,59.52h1.06v8.25h-1.06V59.52z"/>
		<path class="st2" d="M174.46,59.52h1.06V61c0.42-0.57,0.89-0.99,1.41-1.27c0.51-0.28,1.08-0.42,1.68-0.42
			c0.62,0,1.16,0.16,1.64,0.47c0.48,0.31,0.83,0.74,1.06,1.27c0.23,0.53,0.34,1.36,0.34,2.48v4.25h-1.06v-3.94
			c0-0.95-0.04-1.59-0.12-1.9c-0.12-0.55-0.36-0.96-0.71-1.23c-0.35-0.28-0.8-0.41-1.37-0.41c-0.64,0-1.22,0.21-1.73,0.64
			c-0.51,0.42-0.84,0.95-1,1.58c-0.1,0.41-0.15,1.16-0.15,2.24v3.03h-1.06V59.52z"/>
		<path class="st2" d="M190.74,59.52h1.06v6.58c0,1.16-0.1,2-0.3,2.54c-0.28,0.76-0.76,1.34-1.45,1.75
			c-0.69,0.41-1.51,0.61-2.48,0.61c-0.71,0-1.34-0.1-1.91-0.3c-0.56-0.2-1.02-0.47-1.38-0.81c-0.35-0.34-0.68-0.83-0.98-1.48h1.15
			c0.31,0.55,0.72,0.95,1.21,1.21c0.5,0.26,1.11,0.39,1.85,0.39c0.72,0,1.34-0.14,1.83-0.4s0.85-0.61,1.07-1.02
			c0.21-0.41,0.32-1.07,0.32-1.98V66.2c-0.4,0.51-0.89,0.89-1.47,1.16c-0.58,0.27-1.19,0.41-1.84,0.41c-0.76,0-1.47-0.19-2.14-0.56
			c-0.67-0.38-1.18-0.88-1.55-1.52c-0.36-0.64-0.55-1.34-0.55-2.1s0.19-1.48,0.57-2.14c0.38-0.66,0.9-1.18,1.57-1.57
			c0.67-0.38,1.38-0.58,2.12-0.58c0.62,0,1.19,0.13,1.73,0.38c0.53,0.26,1.05,0.68,1.55,1.26V59.52z M187.61,60.33
			c-0.6,0-1.16,0.15-1.68,0.44c-0.52,0.29-0.92,0.69-1.21,1.21c-0.29,0.51-0.44,1.07-0.44,1.66c0,0.91,0.3,1.65,0.91,2.24
			c0.6,0.59,1.39,0.89,2.36,0.89c0.98,0,1.76-0.29,2.35-0.88c0.59-0.59,0.89-1.36,0.89-2.31c0-0.62-0.14-1.18-0.41-1.66
			c-0.27-0.49-0.66-0.87-1.16-1.16C188.72,60.47,188.18,60.33,187.61,60.33z"/>
		<path class="st2" d="M197.93,67.77V56.61h2.31c1.67,0,2.88,0.13,3.63,0.4c1.08,0.38,1.93,1.04,2.54,1.97
			c0.61,0.93,0.91,2.05,0.91,3.34c0,1.12-0.24,2.1-0.72,2.95c-0.48,0.85-1.11,1.48-1.88,1.88c-0.77,0.4-1.85,0.61-3.24,0.61H197.93z
			 M199,66.71h1.29c1.54,0,2.61-0.1,3.21-0.29c0.84-0.27,1.5-0.76,1.98-1.47c0.48-0.71,0.72-1.58,0.72-2.6
			c0-1.08-0.26-1.99-0.78-2.76c-0.52-0.76-1.25-1.29-2.18-1.57c-0.7-0.21-1.85-0.32-3.45-0.32H199V66.71z"/>
		<path class="st2" d="M209.37,56.12c0.24,0,0.45,0.09,0.62,0.26c0.17,0.17,0.25,0.38,0.25,0.62c0,0.24-0.08,0.44-0.25,0.61
			c-0.17,0.17-0.38,0.26-0.62,0.26c-0.24,0-0.44-0.09-0.61-0.26c-0.17-0.17-0.26-0.38-0.26-0.61c0-0.24,0.09-0.45,0.26-0.62
			C208.93,56.21,209.13,56.12,209.37,56.12z M208.84,59.52h1.06v8.25h-1.06V59.52z"/>
		<path class="st2" d="M215.95,60.42l-0.68,0.71c-0.57-0.55-1.12-0.83-1.67-0.83c-0.34,0-0.64,0.11-0.89,0.34
			c-0.24,0.23-0.37,0.49-0.37,0.8c0,0.27,0.1,0.52,0.3,0.77c0.2,0.25,0.63,0.54,1.28,0.87c0.79,0.41,1.33,0.8,1.61,1.18
			c0.28,0.38,0.42,0.82,0.42,1.3c0,0.68-0.24,1.25-0.71,1.72c-0.48,0.47-1.07,0.71-1.79,0.71c-0.47,0-0.93-0.1-1.36-0.31
			c-0.43-0.21-0.79-0.49-1.07-0.86l0.67-0.76c0.54,0.61,1.12,0.92,1.73,0.92c0.43,0,0.79-0.14,1.09-0.41
			c0.3-0.27,0.45-0.59,0.45-0.96c0-0.3-0.1-0.57-0.29-0.81c-0.2-0.23-0.64-0.53-1.34-0.88c-0.74-0.38-1.25-0.76-1.52-1.14
			c-0.27-0.38-0.4-0.8-0.4-1.28c0-0.63,0.21-1.15,0.64-1.56c0.43-0.41,0.97-0.62,1.62-0.62C214.41,59.3,215.18,59.68,215.95,60.42z"
			/>
		<path class="st2" d="M217.51,59.52h1.06v1.43c0.37-0.53,0.75-0.91,1.14-1.15c0.54-0.32,1.1-0.49,1.69-0.49
			c0.4,0,0.78,0.08,1.14,0.23c0.36,0.16,0.65,0.37,0.88,0.63c0.23,0.26,0.42,0.63,0.59,1.12c0.35-0.65,0.8-1.14,1.33-1.47
			c0.53-0.34,1.1-0.51,1.71-0.51c0.57,0,1.07,0.14,1.51,0.43c0.44,0.29,0.76,0.69,0.97,1.21c0.21,0.52,0.32,1.29,0.32,2.32v4.5
			h-1.08v-4.5c0-0.89-0.06-1.49-0.19-1.82c-0.12-0.33-0.34-0.6-0.65-0.8c-0.3-0.2-0.67-0.3-1.09-0.3c-0.51,0-0.99,0.15-1.41,0.45
			c-0.43,0.3-0.74,0.71-0.93,1.21c-0.2,0.51-0.3,1.35-0.3,2.53v3.23h-1.06v-4.22c0-1-0.06-1.67-0.19-2.03
			c-0.12-0.36-0.34-0.64-0.65-0.86c-0.31-0.21-0.67-0.32-1.1-0.32c-0.49,0-0.95,0.15-1.38,0.44c-0.43,0.3-0.74,0.69-0.95,1.19
			c-0.2,0.5-0.31,1.27-0.31,2.3v3.5h-1.06V59.52z"/>
		<path class="st2" d="M240,59.52v8.25h-1.05v-1.42c-0.44,0.54-0.94,0.95-1.5,1.22c-0.55,0.27-1.16,0.41-1.82,0.41
			c-1.17,0-2.16-0.42-2.99-1.27s-1.24-1.88-1.24-3.09c0-1.19,0.42-2.2,1.25-3.05c0.84-0.84,1.84-1.27,3.01-1.27
			c0.68,0,1.29,0.14,1.84,0.43c0.55,0.29,1.03,0.72,1.44,1.3v-1.52H240z M235.75,60.33c-0.59,0-1.14,0.15-1.64,0.44
			c-0.5,0.29-0.9,0.7-1.19,1.22c-0.29,0.52-0.44,1.08-0.44,1.67c0,0.58,0.15,1.14,0.45,1.67c0.3,0.53,0.7,0.94,1.2,1.24
			c0.5,0.3,1.04,0.44,1.62,0.44c0.58,0,1.13-0.15,1.65-0.44c0.52-0.29,0.92-0.69,1.2-1.19c0.28-0.5,0.42-1.06,0.42-1.69
			c0-0.95-0.31-1.75-0.94-2.39C237.45,60.65,236.67,60.33,235.75,60.33z"/>
		<path class="st2" d="M242.07,59.52h1.06V61c0.42-0.57,0.89-0.99,1.41-1.27c0.51-0.28,1.08-0.42,1.68-0.42
			c0.62,0,1.16,0.16,1.64,0.47c0.48,0.31,0.83,0.74,1.06,1.27c0.23,0.53,0.34,1.36,0.34,2.48v4.25h-1.06v-3.94
			c0-0.95-0.04-1.59-0.12-1.9c-0.12-0.55-0.36-0.96-0.71-1.23c-0.35-0.28-0.8-0.41-1.37-0.41c-0.64,0-1.22,0.21-1.73,0.64
			c-0.51,0.42-0.84,0.95-1,1.58c-0.1,0.41-0.15,1.16-0.15,2.24v3.03h-1.06V59.52z"/>
		<path class="st2" d="M252.16,56.45h1.06v3.06h1.68v0.92h-1.68v7.33h-1.06v-7.33h-1.45v-0.92h1.45V56.45z"/>
		<path class="st2" d="M256.03,56.33h1.06v11.44h-1.06V56.33z"/>
		<path class="st2" d="M259.35,56.12c0.24,0,0.45,0.09,0.62,0.26c0.17,0.17,0.25,0.38,0.25,0.62c0,0.24-0.08,0.44-0.25,0.61
			c-0.17,0.17-0.38,0.26-0.62,0.26c-0.24,0-0.44-0.09-0.61-0.26c-0.17-0.17-0.26-0.38-0.26-0.61c0-0.24,0.09-0.45,0.26-0.62
			C258.91,56.21,259.12,56.12,259.35,56.12z M258.83,59.52h1.06v8.25h-1.06V59.52z"/>
		<path class="st2" d="M261.78,59.52h1.06V61c0.42-0.57,0.89-0.99,1.41-1.27c0.51-0.28,1.08-0.42,1.68-0.42
			c0.62,0,1.16,0.16,1.64,0.47c0.48,0.31,0.83,0.74,1.06,1.27c0.23,0.53,0.34,1.36,0.34,2.48v4.25h-1.06v-3.94
			c0-0.95-0.04-1.59-0.12-1.9c-0.12-0.55-0.36-0.96-0.71-1.23c-0.35-0.28-0.8-0.41-1.37-0.41c-0.64,0-1.22,0.21-1.73,0.64
			c-0.51,0.42-0.84,0.95-1,1.58c-0.1,0.41-0.15,1.16-0.15,2.24v3.03h-1.06V59.52z"/>
		<path class="st2" d="M278.06,59.52h1.06v6.58c0,1.16-0.1,2-0.3,2.54c-0.28,0.76-0.76,1.34-1.45,1.75
			c-0.69,0.41-1.51,0.61-2.48,0.61c-0.71,0-1.34-0.1-1.91-0.3c-0.56-0.2-1.02-0.47-1.38-0.81c-0.35-0.34-0.68-0.83-0.98-1.48h1.15
			c0.31,0.55,0.72,0.95,1.21,1.21c0.5,0.26,1.11,0.39,1.85,0.39c0.72,0,1.34-0.14,1.83-0.4c0.5-0.27,0.85-0.61,1.07-1.02
			c0.21-0.41,0.32-1.07,0.32-1.98V66.2c-0.4,0.51-0.89,0.89-1.47,1.16c-0.58,0.27-1.19,0.41-1.84,0.41c-0.76,0-1.47-0.19-2.14-0.56
			c-0.67-0.38-1.18-0.88-1.55-1.52c-0.36-0.64-0.55-1.34-0.55-2.1s0.19-1.48,0.57-2.14c0.38-0.66,0.9-1.18,1.57-1.57
			c0.67-0.38,1.38-0.58,2.12-0.58c0.62,0,1.19,0.13,1.73,0.38c0.53,0.26,1.05,0.68,1.55,1.26V59.52z M274.93,60.33
			c-0.6,0-1.16,0.15-1.68,0.44c-0.52,0.29-0.92,0.69-1.21,1.21c-0.29,0.51-0.44,1.07-0.44,1.66c0,0.91,0.3,1.65,0.91,2.24
			c0.6,0.59,1.39,0.89,2.36,0.89c0.98,0,1.76-0.29,2.35-0.88c0.59-0.59,0.89-1.36,0.89-2.31c0-0.62-0.14-1.18-0.41-1.66
			c-0.27-0.49-0.66-0.87-1.16-1.16C276.04,60.47,275.5,60.33,274.93,60.33z"/>
		<path class="st2" d="M284.14,57.7v-1.09h6.11v1.09h-2.49v10.06h-1.14V57.7H284.14z"/>
		<path class="st2" d="M298.33,65.03l0.89,0.47c-0.29,0.58-0.63,1.04-1.02,1.4c-0.38,0.35-0.82,0.62-1.3,0.81
			c-0.48,0.19-1.03,0.28-1.63,0.28c-1.35,0-2.4-0.44-3.16-1.32c-0.76-0.88-1.14-1.88-1.14-2.99c0-1.05,0.32-1.98,0.96-2.8
			c0.82-1.04,1.91-1.56,3.27-1.56c1.41,0,2.53,0.53,3.37,1.6c0.6,0.75,0.9,1.69,0.91,2.82h-7.42c0.02,0.96,0.33,1.74,0.92,2.36
			c0.59,0.61,1.32,0.92,2.2,0.92c0.42,0,0.83-0.07,1.22-0.22c0.4-0.15,0.74-0.34,1.02-0.58S298,65.57,298.33,65.03z M298.33,62.81
			c-0.14-0.57-0.35-1.02-0.62-1.36c-0.27-0.34-0.63-0.61-1.07-0.82c-0.45-0.21-0.91-0.31-1.41-0.31c-0.81,0-1.51,0.26-2.09,0.78
			c-0.42,0.38-0.74,0.95-0.96,1.71H298.33z"/>
		<path class="st2" d="M309.17,61.23l-0.84,0.52c-0.73-0.96-1.72-1.45-2.98-1.45c-1,0-1.84,0.32-2.51,0.97
			c-0.66,0.65-0.99,1.43-0.99,2.36c0,0.6,0.15,1.17,0.46,1.7c0.31,0.53,0.73,0.94,1.26,1.24c0.53,0.29,1.13,0.44,1.79,0.44
			c1.21,0,2.2-0.48,2.97-1.45l0.84,0.55c-0.4,0.59-0.92,1.06-1.59,1.38c-0.67,0.33-1.42,0.49-2.27,0.49c-1.3,0-2.39-0.41-3.24-1.24
			c-0.86-0.83-1.29-1.84-1.29-3.03c0-0.8,0.2-1.54,0.6-2.23c0.4-0.69,0.95-1.22,1.66-1.6c0.7-0.38,1.49-0.58,2.36-0.58
			c0.55,0,1.07,0.08,1.58,0.25c0.51,0.17,0.94,0.38,1.29,0.65C308.62,60.48,308.92,60.82,309.17,61.23z"/>
		<path class="st2" d="M310.9,56.33h1.06V61c0.43-0.57,0.9-0.99,1.42-1.27c0.51-0.28,1.07-0.42,1.68-0.42
			c0.62,0,1.16,0.16,1.64,0.47c0.48,0.31,0.83,0.73,1.06,1.26c0.23,0.53,0.34,1.36,0.34,2.48v4.25h-1.06v-3.94
			c0-0.95-0.04-1.59-0.11-1.9c-0.13-0.55-0.37-0.96-0.72-1.23c-0.34-0.28-0.8-0.41-1.36-0.41c-0.64,0-1.22,0.21-1.73,0.64
			c-0.51,0.42-0.84,0.95-1,1.58c-0.1,0.4-0.15,1.15-0.15,2.24v3.03h-1.06V56.33z"/>
		<path class="st2" d="M320.06,59.52h1.06V61c0.42-0.57,0.89-0.99,1.41-1.27c0.51-0.28,1.08-0.42,1.68-0.42
			c0.62,0,1.16,0.16,1.64,0.47c0.48,0.31,0.83,0.74,1.06,1.27c0.23,0.53,0.34,1.36,0.34,2.48v4.25h-1.06v-3.94
			c0-0.95-0.04-1.59-0.12-1.9c-0.12-0.55-0.36-0.96-0.71-1.23c-0.35-0.28-0.8-0.41-1.37-0.41c-0.64,0-1.22,0.21-1.73,0.64
			c-0.51,0.42-0.84,0.95-1,1.58c-0.1,0.41-0.15,1.16-0.15,2.24v3.03h-1.06V59.52z"/>
		<path class="st2" d="M333.13,59.3c1.27,0,2.32,0.46,3.16,1.38c0.76,0.84,1.14,1.83,1.14,2.98c0,1.15-0.4,2.16-1.2,3.02
			c-0.8,0.86-1.83,1.29-3.1,1.29c-1.26,0-2.3-0.43-3.1-1.29c-0.8-0.86-1.2-1.87-1.2-3.02c0-1.14,0.38-2.13,1.14-2.97
			C330.8,59.77,331.85,59.3,333.13,59.3z M333.12,60.34c-0.88,0-1.64,0.33-2.27,0.98c-0.64,0.65-0.95,1.44-0.95,2.37
			c0,0.6,0.14,1.15,0.43,1.67c0.29,0.52,0.68,0.91,1.17,1.19c0.49,0.28,1.03,0.42,1.62,0.42s1.13-0.14,1.62-0.42
			c0.49-0.28,0.88-0.68,1.17-1.19c0.29-0.52,0.43-1.07,0.43-1.67c0-0.93-0.32-1.71-0.95-2.37C334.76,60.67,334,60.34,333.12,60.34z"
			/>
		<path class="st2" d="M338.92,56.33h1.06v11.44h-1.06V56.33z"/>
		<path class="st2" d="M345.78,59.3c1.27,0,2.32,0.46,3.16,1.38c0.76,0.84,1.14,1.83,1.14,2.98c0,1.15-0.4,2.16-1.2,3.02
			c-0.8,0.86-1.83,1.29-3.1,1.29c-1.26,0-2.3-0.43-3.1-1.29c-0.8-0.86-1.2-1.87-1.2-3.02c0-1.14,0.38-2.13,1.14-2.97
			C343.45,59.77,344.51,59.3,345.78,59.3z M345.78,60.34c-0.88,0-1.64,0.33-2.27,0.98c-0.64,0.65-0.95,1.44-0.95,2.37
			c0,0.6,0.14,1.15,0.43,1.67c0.29,0.52,0.68,0.91,1.17,1.19c0.49,0.28,1.03,0.42,1.62,0.42c0.59,0,1.13-0.14,1.62-0.42
			c0.49-0.28,0.88-0.68,1.17-1.19c0.29-0.52,0.43-1.07,0.43-1.67c0-0.93-0.32-1.71-0.95-2.37
			C347.41,60.67,346.66,60.34,345.78,60.34z"/>
		<path class="st2" d="M358.85,59.52h1.06v6.58c0,1.16-0.1,2-0.3,2.54c-0.28,0.76-0.76,1.34-1.45,1.75
			c-0.69,0.41-1.51,0.61-2.48,0.61c-0.71,0-1.34-0.1-1.91-0.3c-0.56-0.2-1.02-0.47-1.38-0.81c-0.35-0.34-0.68-0.83-0.98-1.48h1.15
			c0.31,0.55,0.72,0.95,1.21,1.21c0.5,0.26,1.11,0.39,1.85,0.39c0.72,0,1.34-0.14,1.83-0.4s0.85-0.61,1.07-1.02
			c0.21-0.41,0.32-1.07,0.32-1.98V66.2c-0.4,0.51-0.89,0.89-1.47,1.16c-0.58,0.27-1.19,0.41-1.84,0.41c-0.76,0-1.47-0.19-2.14-0.56
			c-0.67-0.38-1.18-0.88-1.55-1.52c-0.36-0.64-0.55-1.34-0.55-2.1s0.19-1.48,0.57-2.14c0.38-0.66,0.9-1.18,1.57-1.57
			c0.67-0.38,1.38-0.58,2.12-0.58c0.62,0,1.19,0.13,1.73,0.38c0.53,0.26,1.05,0.68,1.55,1.26V59.52z M355.72,60.33
			c-0.6,0-1.16,0.15-1.68,0.44c-0.52,0.29-0.92,0.69-1.21,1.21c-0.29,0.51-0.44,1.07-0.44,1.66c0,0.91,0.3,1.65,0.91,2.24
			c0.6,0.59,1.39,0.89,2.36,0.89c0.98,0,1.76-0.29,2.35-0.88c0.59-0.59,0.89-1.36,0.89-2.31c0-0.62-0.14-1.18-0.41-1.66
			c-0.27-0.49-0.66-0.87-1.16-1.16C356.83,60.47,356.29,60.33,355.72,60.33z"/>
		<path class="st2" d="M360.99,59.52h1.12l2.84,6.35l2.75-6.35h1.13l-4.92,11.27h-1.12l1.59-3.64L360.99,59.52z"/>
		<path class="st2" d="M374.12,56.61h2.22c1.24,0,2.08,0.05,2.52,0.15c0.66,0.15,1.2,0.48,1.61,0.98c0.41,0.5,0.62,1.11,0.62,1.84
			c0,0.61-0.14,1.14-0.43,1.6c-0.29,0.46-0.69,0.81-1.22,1.04c-0.53,0.24-1.26,0.36-2.2,0.36l4.01,5.18h-1.38l-4.01-5.18h-0.63v5.18
			h-1.11V56.61z M375.23,57.7v3.79l1.92,0.01c0.74,0,1.3-0.07,1.65-0.21c0.36-0.14,0.63-0.37,0.84-0.68c0.2-0.31,0.3-0.66,0.3-1.04
			c0-0.37-0.1-0.71-0.3-1.02c-0.2-0.31-0.47-0.52-0.8-0.66c-0.33-0.13-0.87-0.2-1.64-0.2H375.23z"/>
		<path class="st2" d="M389.95,65.03l0.89,0.47c-0.29,0.58-0.63,1.04-1.02,1.4c-0.38,0.35-0.82,0.62-1.3,0.81
			c-0.48,0.19-1.03,0.28-1.63,0.28c-1.35,0-2.4-0.44-3.16-1.32c-0.76-0.88-1.14-1.88-1.14-2.99c0-1.05,0.32-1.98,0.96-2.8
			c0.82-1.04,1.91-1.56,3.27-1.56c1.41,0,2.53,0.53,3.37,1.6c0.6,0.75,0.9,1.69,0.91,2.82h-7.42c0.02,0.96,0.33,1.74,0.92,2.36
			c0.59,0.61,1.32,0.92,2.2,0.92c0.42,0,0.83-0.07,1.22-0.22s0.74-0.34,1.02-0.58C389.32,65.96,389.62,65.57,389.95,65.03z
			 M389.95,62.81c-0.14-0.57-0.35-1.02-0.62-1.36c-0.27-0.34-0.63-0.61-1.07-0.82c-0.45-0.21-0.91-0.31-1.41-0.31
			c-0.81,0-1.51,0.26-2.09,0.78c-0.42,0.38-0.74,0.95-0.96,1.71H389.95z"/>
		<path class="st2" d="M396.93,60.42l-0.68,0.71c-0.57-0.55-1.12-0.83-1.67-0.83c-0.34,0-0.64,0.11-0.89,0.34
			c-0.24,0.23-0.37,0.49-0.37,0.8c0,0.27,0.1,0.52,0.3,0.77c0.2,0.25,0.63,0.54,1.28,0.87c0.79,0.41,1.33,0.8,1.61,1.18
			c0.28,0.38,0.42,0.82,0.42,1.3c0,0.68-0.24,1.25-0.71,1.72c-0.48,0.47-1.07,0.71-1.79,0.71c-0.47,0-0.93-0.1-1.36-0.31
			c-0.43-0.21-0.79-0.49-1.07-0.86l0.67-0.76c0.54,0.61,1.12,0.92,1.73,0.92c0.43,0,0.79-0.14,1.09-0.41
			c0.3-0.27,0.45-0.59,0.45-0.96c0-0.3-0.1-0.57-0.29-0.81c-0.2-0.23-0.64-0.53-1.34-0.88c-0.74-0.38-1.25-0.76-1.52-1.14
			c-0.27-0.38-0.4-0.8-0.4-1.28c0-0.63,0.21-1.15,0.64-1.56c0.43-0.41,0.97-0.62,1.62-0.62C395.39,59.3,396.16,59.68,396.93,60.42z"
			/>
		<path class="st2" d="M405.45,65.03l0.89,0.47c-0.29,0.58-0.63,1.04-1.02,1.4c-0.38,0.35-0.82,0.62-1.3,0.81
			c-0.48,0.19-1.03,0.28-1.63,0.28c-1.35,0-2.4-0.44-3.16-1.32c-0.76-0.88-1.14-1.88-1.14-2.99c0-1.05,0.32-1.98,0.96-2.8
			c0.82-1.04,1.91-1.56,3.27-1.56c1.41,0,2.53,0.53,3.37,1.6c0.6,0.75,0.9,1.69,0.91,2.82h-7.42c0.02,0.96,0.33,1.74,0.92,2.36
			c0.59,0.61,1.32,0.92,2.2,0.92c0.42,0,0.83-0.07,1.22-0.22c0.4-0.15,0.74-0.34,1.02-0.58S405.12,65.57,405.45,65.03z
			 M405.45,62.81c-0.14-0.57-0.35-1.02-0.62-1.36c-0.27-0.34-0.63-0.61-1.07-0.82c-0.45-0.21-0.91-0.31-1.41-0.31
			c-0.81,0-1.51,0.26-2.09,0.78c-0.42,0.38-0.74,0.95-0.96,1.71H405.45z"/>
		<path class="st2" d="M416.5,59.52v8.25h-1.05v-1.42c-0.44,0.54-0.94,0.95-1.5,1.22c-0.55,0.27-1.16,0.41-1.82,0.41
			c-1.17,0-2.16-0.42-2.99-1.27s-1.24-1.88-1.24-3.09c0-1.19,0.42-2.2,1.25-3.05s1.84-1.27,3.01-1.27c0.68,0,1.29,0.14,1.84,0.43
			c0.55,0.29,1.03,0.72,1.44,1.3v-1.52H416.5z M412.26,60.33c-0.59,0-1.14,0.15-1.64,0.44c-0.5,0.29-0.9,0.7-1.19,1.22
			c-0.29,0.52-0.44,1.08-0.44,1.67c0,0.58,0.15,1.14,0.45,1.67c0.3,0.53,0.7,0.94,1.2,1.24c0.5,0.3,1.04,0.44,1.62,0.44
			c0.58,0,1.13-0.15,1.65-0.44c0.52-0.29,0.92-0.69,1.2-1.19c0.28-0.5,0.42-1.06,0.42-1.69c0-0.95-0.31-1.75-0.94-2.39
			C413.95,60.65,413.18,60.33,412.26,60.33z"/>
		<path class="st2" d="M418.18,59.52h1.08v1.21c0.32-0.48,0.66-0.83,1.02-1.07c0.36-0.23,0.73-0.35,1.12-0.35
			c0.29,0,0.61,0.09,0.94,0.28l-0.55,0.89c-0.22-0.1-0.41-0.14-0.56-0.14c-0.35,0-0.69,0.15-1.02,0.44
			c-0.33,0.29-0.58,0.74-0.75,1.35c-0.13,0.47-0.2,1.42-0.2,2.85v2.79h-1.08V59.52z"/>
		<path class="st2" d="M430.95,61.23l-0.84,0.52c-0.73-0.96-1.72-1.45-2.98-1.45c-1,0-1.84,0.32-2.51,0.97
			c-0.66,0.65-0.99,1.43-0.99,2.36c0,0.6,0.15,1.17,0.46,1.7c0.31,0.53,0.73,0.94,1.26,1.24c0.53,0.29,1.13,0.44,1.79,0.44
			c1.21,0,2.2-0.48,2.97-1.45l0.84,0.55c-0.4,0.59-0.92,1.06-1.59,1.38c-0.67,0.33-1.42,0.49-2.27,0.49c-1.3,0-2.39-0.41-3.24-1.24
			c-0.86-0.83-1.29-1.84-1.29-3.03c0-0.8,0.2-1.54,0.6-2.23c0.4-0.69,0.95-1.22,1.66-1.6c0.7-0.38,1.49-0.58,2.36-0.58
			c0.55,0,1.07,0.08,1.58,0.25c0.51,0.17,0.94,0.38,1.29,0.65C430.4,60.48,430.7,60.82,430.95,61.23z"/>
		<path class="st2" d="M432.68,56.33h1.06V61c0.43-0.57,0.9-0.99,1.42-1.27c0.51-0.28,1.07-0.42,1.68-0.42
			c0.62,0,1.16,0.16,1.64,0.47c0.48,0.31,0.83,0.73,1.06,1.26c0.23,0.53,0.34,1.36,0.34,2.48v4.25h-1.06v-3.94
			c0-0.95-0.04-1.59-0.11-1.9c-0.13-0.55-0.37-0.96-0.72-1.23c-0.34-0.28-0.8-0.41-1.36-0.41c-0.64,0-1.22,0.21-1.73,0.64
			c-0.51,0.42-0.84,0.95-1,1.58c-0.1,0.4-0.15,1.15-0.15,2.24v3.03h-1.06V56.33z"/>
		<path class="st2" d="M445.84,56.61h1.11v11.16h-1.11V56.61z"/>
		<path class="st2" d="M449.03,59.52h1.06V61c0.42-0.57,0.89-0.99,1.41-1.27c0.51-0.28,1.08-0.42,1.68-0.42
			c0.62,0,1.16,0.16,1.64,0.47c0.48,0.31,0.83,0.74,1.06,1.27c0.23,0.53,0.34,1.36,0.34,2.48v4.25h-1.06v-3.94
			c0-0.95-0.04-1.59-0.12-1.9c-0.12-0.55-0.36-0.96-0.71-1.23c-0.35-0.28-0.8-0.41-1.37-0.41c-0.64,0-1.22,0.21-1.73,0.64
			c-0.51,0.42-0.84,0.95-1,1.58c-0.1,0.41-0.15,1.16-0.15,2.24v3.03h-1.06V59.52z"/>
		<path class="st2" d="M462.34,60.42l-0.68,0.71c-0.57-0.55-1.12-0.83-1.67-0.83c-0.34,0-0.64,0.11-0.89,0.34
			c-0.24,0.23-0.37,0.49-0.37,0.8c0,0.27,0.1,0.52,0.3,0.77c0.2,0.25,0.63,0.54,1.28,0.87c0.79,0.41,1.33,0.8,1.61,1.18
			c0.28,0.38,0.42,0.82,0.42,1.3c0,0.68-0.24,1.25-0.71,1.72c-0.48,0.47-1.07,0.71-1.79,0.71c-0.47,0-0.93-0.1-1.36-0.31
			c-0.43-0.21-0.79-0.49-1.07-0.86l0.67-0.76c0.54,0.61,1.12,0.92,1.73,0.92c0.43,0,0.79-0.14,1.09-0.41
			c0.3-0.27,0.45-0.59,0.45-0.96c0-0.3-0.1-0.57-0.29-0.81c-0.2-0.23-0.64-0.53-1.34-0.88c-0.74-0.38-1.25-0.76-1.52-1.14
			c-0.27-0.38-0.4-0.8-0.4-1.28c0-0.63,0.21-1.15,0.64-1.56c0.43-0.41,0.97-0.62,1.62-0.62C460.8,59.3,461.57,59.68,462.34,60.42z"
			/>
		<path class="st2" d="M464.83,56.45h1.06v3.06h1.68v0.92h-1.68v7.33h-1.06v-7.33h-1.45v-0.92h1.45V56.45z"/>
		<path class="st2" d="M469.23,56.12c0.24,0,0.45,0.09,0.62,0.26c0.17,0.17,0.25,0.38,0.25,0.62c0,0.24-0.08,0.44-0.25,0.61
			c-0.17,0.17-0.38,0.26-0.62,0.26c-0.24,0-0.44-0.09-0.61-0.26c-0.17-0.17-0.26-0.38-0.26-0.61c0-0.24,0.09-0.45,0.26-0.62
			C468.79,56.21,468.99,56.12,469.23,56.12z M468.7,59.52h1.06v8.25h-1.06V59.52z"/>
		<path class="st2" d="M472.59,56.45h1.06v3.06h1.68v0.92h-1.68v7.33h-1.06v-7.33h-1.45v-0.92h1.45V56.45z"/>
		<path class="st2" d="M476.48,59.52h1.06v3.85c0,0.94,0.05,1.59,0.15,1.94c0.15,0.51,0.44,0.91,0.87,1.2
			c0.43,0.29,0.94,0.44,1.53,0.44c0.59,0,1.09-0.14,1.51-0.43c0.41-0.29,0.7-0.66,0.85-1.13c0.11-0.32,0.16-0.99,0.16-2.02v-3.85
			h1.08v4.05c0,1.14-0.13,1.99-0.4,2.57c-0.27,0.58-0.67,1.03-1.2,1.35c-0.53,0.33-1.2,0.49-2.01,0.49c-0.8,0-1.47-0.16-2.01-0.49
			c-0.54-0.33-0.94-0.78-1.21-1.37c-0.27-0.58-0.4-1.46-0.4-2.64V59.52z"/>
		<path class="st2" d="M486.67,56.45h1.06v3.06h1.68v0.92h-1.68v7.33h-1.06v-7.33h-1.45v-0.92h1.45V56.45z"/>
		<path class="st2" d="M497.65,65.03l0.89,0.47c-0.29,0.58-0.63,1.04-1.02,1.4c-0.38,0.35-0.82,0.62-1.3,0.81
			c-0.48,0.19-1.03,0.28-1.63,0.28c-1.35,0-2.4-0.44-3.16-1.32c-0.76-0.88-1.14-1.88-1.14-2.99c0-1.05,0.32-1.98,0.96-2.8
			c0.82-1.04,1.91-1.56,3.27-1.56c1.41,0,2.53,0.53,3.37,1.6c0.6,0.75,0.9,1.69,0.91,2.82h-7.42c0.02,0.96,0.33,1.74,0.92,2.36
			c0.59,0.61,1.32,0.92,2.2,0.92c0.42,0,0.83-0.07,1.22-0.22c0.4-0.15,0.74-0.34,1.02-0.58S497.32,65.57,497.65,65.03z
			 M497.65,62.81c-0.14-0.57-0.35-1.02-0.62-1.36c-0.27-0.34-0.63-0.61-1.07-0.82c-0.45-0.21-0.91-0.31-1.41-0.31
			c-0.81,0-1.51,0.26-2.09,0.78c-0.42,0.38-0.74,0.95-0.96,1.71H497.65z"/>
	</g>
	<g>
		<path class="st2" d="M96.76,44.15c-1.15-1.82-2.38-4.09-3.71-6.79c-1.33-2.71-2-5.96-2-9.76c0-3.78,0.67-7.03,2-9.75
			c1.33-2.72,2.57-4.98,3.71-6.78h3.37c-1.71,3.12-2.93,6.04-3.68,8.76c-0.74,2.72-1.12,5.31-1.12,7.76c0,2.48,0.37,5.08,1.12,7.8
			c0.74,2.72,1.97,5.64,3.68,8.75H96.76z"/>
		<path class="st2" d="M118.29,37.29c-1.19-0.71-2.48-1.71-3.86-3.02s-2.48-2.78-3.27-4.42c-0.65,1.64-1.68,3.17-3.08,4.61
			c-1.41,1.43-2.66,2.48-3.76,3.14l-3.21-2.97c1.66-0.93,3.36-2.46,5.09-4.59c1.73-2.13,2.6-5.05,2.6-8.75v-7.1h4.6v7.1
			c0,3.71,0.89,6.56,2.66,8.55c1.77,1.99,3.38,3.41,4.83,4.25L118.29,37.29z M126.98,28.68v13.93h-4.35V12.57h4.35v11.81h4.05v4.3
			H126.98z"/>
		<path class="st2" d="M135.8,35.41c0.71-2.66,1.07-5.27,1.07-7.82c0-2.53-0.36-5.12-1.07-7.78c-0.71-2.66-1.92-5.51-3.63-8.53h2.95
			c1.15,1.8,2.37,4.04,3.66,6.72c1.3,2.69,1.95,5.88,1.95,9.59c0,3.73-0.65,6.94-1.95,9.61c-1.3,2.67-2.52,4.92-3.66,6.74h-2.95
			C133.87,40.91,135.08,38.07,135.8,35.41z"/>
		<path class="st2" d="M144.1,20.7v-3.55h18.03v3.55H144.1z M159.01,30.7c-1.53,1-3.51,1.5-5.93,1.5c-2.27,0-4.21-0.5-5.82-1.5
			c-1.61-1-2.42-2.24-2.42-3.72c0-1.55,0.81-2.82,2.42-3.81c1.61-0.99,3.56-1.48,5.85-1.48c2.42,0,4.4,0.5,5.92,1.5
			c1.52,1,2.29,2.28,2.29,3.82C161.32,28.47,160.55,29.7,159.01,30.7z M148.02,41.93v-8.29h4.67v4.54h16.8v3.75H148.02z
			 M148.21,15.71V12.3h9.7v3.41H148.21z M155.72,25.56c-0.74-0.31-1.59-0.46-2.54-0.46c-0.99,0-1.89,0.15-2.67,0.46
			c-0.79,0.31-1.18,0.77-1.18,1.38c0,0.64,0.4,1.1,1.18,1.38c0.79,0.28,1.68,0.43,2.67,0.43c0.95,0,1.8-0.14,2.54-0.43
			c0.74-0.28,1.12-0.73,1.12-1.35C156.84,26.34,156.47,25.87,155.72,25.56z M168.61,25.54v9.05h-4.35V12.57h4.35v8.87h3.79v4.1
			H168.61z"/>
		<path class="st2" d="M189.1,27.73v4.4h9.15v10.48h-4.41v-6.55H176.3v-3.92h8.2v-4.4h-11.31V23.8H193c0.2-0.89,0.4-1.93,0.62-3.14
			c0.21-1.2,0.37-2.3,0.45-3.28h-17.9v-3.92h22.73c0,1.89-0.23,3.92-0.7,6.11c-0.46,2.18-0.78,3.6-0.96,4.23h4.47v3.93H189.1z"/>
		<path class="st2" d="M215.81,25.9c-2.69,2.79-5.99,4.67-9.91,5.65l-2.56-3.11c3.48-0.71,6.25-2.16,8.3-4.35
			c2.05-2.2,3.08-4.17,3.08-5.92h-9.24v-3.89h14.37C219.85,19.24,218.5,23.11,215.81,25.9z M208.72,41.93v-9.42h4.41V38h17.19v3.92
			H208.72z M225.36,34.28v-9.01h-5.61v-3.93h5.61v-8.77h4.31v21.71H225.36z"/>
		<path class="st2" d="M249.39,31.69v2.63h8.66v8.29h-4.38V38.1h-17.8v-3.79h8.98v-2.63h-12v-3.76h28.53v3.76H249.39z M257.43,26.81
			c-0.47-0.05-1.82-0.27-4.04-0.68c-2.22-0.41-4.31-1.41-6.27-3c-1.15,1.32-3.03,2.25-5.64,2.8s-4.17,0.84-4.67,0.89l-2.34-3.35
			c0.76-0.07,2.27-0.32,4.54-0.77c2.27-0.44,3.85-1.19,4.73-2.24h-7.98v-3.48h22.7v3.48h-7.98c1.08,1.05,2.71,1.79,4.9,2.24
			c2.18,0.44,3.64,0.7,4.38,0.77L257.43,26.81z M240.89,15.41v-3.45h12.39v3.45H240.89z"/>
		<path class="st2" d="M279.22,27.83v1.67h8.66v7.92h-16.89v1.37h17.54v3.48h-22.5v-7.95h16.89v-1.37h-16.89V29.5h8.66v-1.67h-12
			v-3.55h28.53v3.55H279.22z M266.02,22.74v-9.42h21.86v9.42H266.02z M283.56,16.91h-13.23v2.25h13.23V16.91z"/>
		<path class="st2" d="M292.84,23.73v-3.79h14.88v3.79H292.84z M305.27,36.45c-1.33,1.15-2.99,1.72-4.98,1.72
			c-1.77,0-3.37-0.56-4.8-1.69c-1.43-1.13-2.14-2.71-2.14-4.76c0-1.96,0.71-3.51,2.12-4.66c1.42-1.15,3.02-1.72,4.81-1.72
			c1.97,0,3.62,0.58,4.96,1.74c1.34,1.16,2.01,2.71,2.01,4.64C307.27,33.72,306.6,35.3,305.27,36.45z M296.11,18.1v-3.65h8.24v3.65
			H296.11z M298.32,33.84c0.56,0.46,1.22,0.68,1.98,0.68c0.82,0,1.5-0.23,2.03-0.7c0.53-0.47,0.79-1.15,0.79-2.07
			c0-0.89-0.26-1.57-0.78-2.05c-0.52-0.48-1.2-0.72-2.04-0.72c-0.78,0-1.44,0.24-1.99,0.72c-0.55,0.48-0.83,1.17-0.83,2.08
			C297.47,32.7,297.75,33.38,298.32,33.84z M315.6,42.61v-14.1h-2.3v12.73h-4.15V13.26h4.15v10.41h2.3V12.57h4.15v30.04H315.6z"/>
		<path class="st2" d="M335.41,37.49c-0.89-0.52-1.78-1.24-2.69-2.15c-0.91-0.91-1.65-1.93-2.24-3.07
			c-0.41,1.09-1.14,2.12-2.19,3.09c-1.05,0.97-2.11,1.76-3.19,2.37l-3.05-3c1.64-0.75,3.06-1.93,4.26-3.55
			c1.2-1.62,1.8-3.61,1.8-5.97v-0.85h-4.7v-4.03h14.01v4.03h-4.6v0.85c0,2.34,0.55,4.23,1.64,5.67c1.09,1.43,2.3,2.55,3.62,3.34
			L335.41,37.49z M326.43,18.17v-3.86h8.04v3.86H326.43z M339.5,41.24v-11.4h-3.44v-4.13h3.44V13.26h4.18v27.99H339.5z
			 M345.66,42.61V12.57h4.18v30.04H345.66z"/>
		<path class="st2" d="M365.58,29.55c-2.62,3.54-5.7,6.25-9.22,8.14l-3.37-2.66c3.33-1.43,6.05-3.69,8.16-6.77
			c2.11-3.08,3.16-5.93,3.16-8.55h-9.47v-3.89h14.69C369.52,21.44,368.21,26.02,365.58,29.55z M374.39,42.61V12.57h4.35v30.04
			H374.39z"/>
		<path class="st2" d="M398.67,27.83v1.88h8.4v7.71h-16.77v1.43h17.44v3.41h-22.28v-7.82h16.73v-1.4h-16.73v-3.35h8.4v-1.88h-11.87
			v-3.65h28.53v3.65H398.67z M406.46,23.19c-1.49-0.16-3.38-0.77-5.66-1.83c-2.28-1.06-3.75-2.17-4.4-3.33
			c-0.82,1.11-2.3,2.19-4.42,3.22c-2.13,1.04-4.1,1.67-5.92,1.89l-2.43-3.11c2.08-0.34,4.31-1.12,6.71-2.34
			c2.4-1.22,3.6-2.66,3.6-4.32v-1.02h4.9v1.02c0,1.66,1.12,3.08,3.36,4.25c2.24,1.17,4.47,1.98,6.7,2.41L406.46,23.19z"/>
		<path class="st2" d="M433.99,34.25v-7.92h-6.07c-0.73,0.93-1.68,1.69-2.82,2.27c-1.15,0.58-2.42,0.87-3.83,0.87
			c-2.42,0-4.42-0.81-5.98-2.42c-1.57-1.62-2.35-3.53-2.35-5.73s0.78-4.12,2.35-5.73c1.57-1.62,3.56-2.42,5.98-2.42
			c1.28,0,2.44,0.24,3.5,0.72c1.06,0.48,1.96,1.11,2.69,1.91h6.52v-3.21h4.38v21.67H433.99z M417.22,41.93v-10h4.41V38h17.38v3.92
			H417.22z M418.39,18.33c-0.69,0.85-1.04,1.85-1.04,2.99c0,1.11,0.34,2.1,1.04,2.97c0.69,0.87,1.65,1.3,2.89,1.3
			c1.28,0,2.25-0.43,2.93-1.3c0.68-0.86,1.02-1.85,1.02-2.97c0-1.14-0.34-2.13-1.02-2.99c-0.68-0.85-1.66-1.28-2.93-1.28
			C420.04,17.04,419.08,17.47,418.39,18.33z M433.99,19.71h-4.51c0.04,0.25,0.08,0.51,0.11,0.79c0.03,0.27,0.05,0.55,0.05,0.82
			c0,0.18-0.01,0.36-0.02,0.55c-0.01,0.18-0.04,0.36-0.08,0.55h4.44V19.71z"/>
		<path class="st2" d="M457.46,30.25v12.36h-4.47V30.25h-11.31v-3.92h19.42c0.22-0.96,0.47-2.27,0.76-3.94
			c0.29-1.67,0.47-3.17,0.54-4.49h-17.74v-3.93h22.6c0,2.62-0.26,5.18-0.78,7.7c-0.52,2.51-0.83,4.07-0.94,4.66h4.67v3.92H457.46z"
			/>
		<path class="st2" d="M487.81,28.09c-2.14,0.15-3.74,0.23-4.8,0.26v4.34h-4.41v-4.3h-6.13v-3.89h9.56c1.47,0,3.44-0.1,5.9-0.31
			c2.47-0.21,4.12-0.39,4.96-0.55v3.89C491.65,27.75,489.95,27.94,487.81,28.09z M488.09,13.65c1.26,1.15,1.9,2.46,1.9,3.94
			c0,1.52-0.65,2.85-1.95,3.98c-1.3,1.13-3.2,1.69-5.71,1.69c-2.51,0-4.41-0.57-5.71-1.71c-1.3-1.14-1.95-2.46-1.95-3.96
			c0-1.48,0.65-2.79,1.96-3.94c1.31-1.15,3.21-1.72,5.69-1.72C484.9,11.92,486.82,12.5,488.09,13.65z M477.08,41.93v-8.06h4.41V38
			H499v3.92H477.08z M485.04,16.09c-0.53-0.55-1.43-0.82-2.71-0.82c-1.23,0-2.11,0.27-2.64,0.82c-0.53,0.55-0.8,1.05-0.8,1.5
			c0,0.43,0.28,0.91,0.84,1.43c0.56,0.52,1.44,0.79,2.63,0.79c1.25,0,2.14-0.26,2.67-0.79c0.53-0.52,0.8-1,0.8-1.43
			C485.84,17.14,485.57,16.64,485.04,16.09z M494.04,35.17v-2.22h-6.46v-3.58h6.46V12.57h4.31v22.59H494.04z"/>
	</g>
	<g>
		<g>
			<g>
				<path class="st2" d="M45.56,0.94H1v76.95h44.56c13.69,0,24.79-17.23,24.79-38.48S59.25,0.94,45.56,0.94z M46.67,67.43H8V47.71
					h38.67c3.51,0,6.35,4.41,6.35,9.86C53.02,63.02,50.18,67.43,46.67,67.43z M46.67,30.24H8V10.52h38.67
					c3.51,0,6.35,4.41,6.35,9.86C53.02,25.82,50.18,30.24,46.67,30.24z"/>
			</g>
		</g>
		<g>
			<g>
				<g>
					<path class="st3" d="M32.87,30.24h4.4c4.35,0,6.22,3.26,6.22,8.47c0,5.36-2.03,9-6.51,9h-4.11V30.24z M40.75,38.9
						c0-4.34-1.21-5.67-3.71-5.67h-1.51v11.49h1.32C39.75,44.72,40.75,42.52,40.75,38.9z"/>
				</g>
				<g>
					<path class="st3" d="M20.49,30.24h6.33c3.77,0,4.83,1.88,4.83,4.27c0,2.34-1.41,3.6-3.02,4.08v0.05
						c2.53,0.34,3.7,1.86,3.7,4.27c0,3.57-2.56,4.8-6.02,4.8h-5.82V30.24z M28.31,35.11c0-1.88-1.15-2-2.67-2h-1.76v4.34h1.26
						C26.73,37.45,28.31,37.14,28.31,35.11z M28.71,42.57c0-1.95-1.23-2.29-2.76-2.29h-2.07v4.56h1.74
						C27.47,44.84,28.71,44.48,28.71,42.57z"/>
				</g>
				<g>
					<path class="st3" d="M61.52,47.71l-2.89-6.64h-2v6.64h-3.09V30.24h5.69c3.63,0,4.84,2.34,4.84,4.92c0,2.58-1.03,4.17-2.52,5
						l3.31,7.55H61.52z M60.88,35.52c0-1.67-0.87-2.29-2.52-2.29h-1.72v4.92h1.59C59.69,38.15,60.88,37.5,60.88,35.52z"/>
				</g>
				<g>
					<path class="st3" d="M65.6,47.71V30.24h3.67v17.47H65.6z"/>
				</g>
				<g>
					<polygon class="st3" points="42.64,30.24 42.64,33.38 46.02,33.38 46.02,47.71 49.72,47.71 49.72,33.38 53.05,33.38 
						53.05,30.24 					"/>
				</g>
			</g>
			<polygon class="st3" points="19.03,46.62 19.03,46.62 12.67,40.67 12.67,40.67 11.27,39.35 11.27,38.97 13.04,37.07 13.04,37.08 
				19.41,30.24 15.81,30.24 13.04,33.18 13.04,33.19 11.27,35.08 11.27,34.12 11.27,30.24 8.23,30.24 8.23,35.14 8.23,37.98 
				8.23,40.64 8.23,43.35 8.23,47.71 11.27,47.71 11.27,44.13 11.27,42.99 13.46,45.02 13.46,45.05 16.34,47.71 20.19,47.71 			"/>
		</g>
	</g>
</g>
</svg>
